<svg width="32" height="32" viewBox="0 0 32 32" fill="none" xmlns="http://www.w3.org/2000/svg">
<path fill-rule="evenodd" clip-rule="evenodd" d="M19.1215 3.8976C16.1742 3.8976 13.7767 6.27354 13.7767 9.19394C13.7767 12.1144 16.1742 14.4903 19.1215 14.4903C22.0689 14.4903 24.4664 12.1144 24.4664 9.19394C24.4664 6.27354 22.0689 3.8976 19.1215 3.8976ZM19.1215 15.7184C15.4909 15.7184 12.5371 12.7916 12.5371 9.19394C12.5371 5.59632 15.4909 2.66943 19.1215 2.66943C22.7522 2.66943 25.7059 5.59632 25.7059 9.19394C25.7059 12.7916 22.7522 15.7184 19.1215 15.7184Z" fill="#294C6A"/>
<path fill-rule="evenodd" clip-rule="evenodd" d="M19.1215 3.8976C16.1742 3.8976 13.7767 6.27354 13.7767 9.19394C13.7767 12.1144 16.1742 14.4903 19.1215 14.4903C22.0689 14.4903 24.4664 12.1144 24.4664 9.19394C24.4664 6.27354 22.0689 3.8976 19.1215 3.8976ZM19.1215 15.7184C15.4909 15.7184 12.5371 12.7916 12.5371 9.19394C12.5371 5.59632 15.4909 2.66943 19.1215 2.66943C22.7522 2.66943 25.7059 5.59632 25.7059 9.19394C25.7059 12.7916 22.7522 15.7184 19.1215 15.7184Z" fill="black" fill-opacity="0.2"/>
<path fill-rule="evenodd" clip-rule="evenodd" d="M11.0112 16.8136C10.4999 16.0302 10.8531 16.3665 11.4999 16.5002C11.3945 16.8136 11.8084 15.5831 11.4999 16.5002C10.9004 16.5002 10.0551 16.9335 10.8531 16.0302C11.8445 14.9076 13.1295 13.9969 14.6729 13.3233C14.9861 13.1865 15.3519 13.3273 15.49 13.6377C15.6277 13.9481 15.4858 14.3105 15.1726 14.4472C13.8081 15.0427 12.6765 15.8389 11.8084 16.8136C11.1166 17.5902 11.8526 15.8266 11.4999 16.8136C11.4999 16.9472 10.9999 15.5002 10.9999 16.5002C11.3394 16.4666 11.033 16.8371 10.9999 16.5002C10.9786 16.5022 10.9999 16.5002 11.0112 16.8136Z" fill="#294C6A"/>
<path fill-rule="evenodd" clip-rule="evenodd" d="M11.0112 16.8136C10.4999 16.0302 10.8531 16.3665 11.4999 16.5002C11.3945 16.8136 11.8084 15.5831 11.4999 16.5002C10.9004 16.5002 10.0551 16.9335 10.8531 16.0302C11.8445 14.9076 13.1295 13.9969 14.6729 13.3233C14.9861 13.1865 15.3519 13.3273 15.49 13.6377C15.6277 13.9481 15.4858 14.3105 15.1726 14.4472C13.8081 15.0427 12.6765 15.8389 11.8084 16.8136C11.1166 17.5902 11.8526 15.8266 11.4999 16.8136C11.4999 16.9472 10.9999 15.5002 10.9999 16.5002C11.3394 16.4666 11.033 16.8371 10.9999 16.5002C10.9786 16.5022 10.9999 16.5002 11.0112 16.8136Z" fill="black" fill-opacity="0.2"/>
<path fill-rule="evenodd" clip-rule="evenodd" d="M28.6884 23.273C28.6672 23.273 28.646 23.272 28.6243 23.2698C28.2843 23.2353 28.037 22.9348 28.071 22.598C28.0723 22.5822 28.201 21.1728 27.5934 19.4715C27.2407 18.4845 26.7112 17.5902 26.0194 16.8136C25.1513 15.8388 24.0197 15.0427 22.6552 14.4472C22.342 14.3104 22.2001 13.948 22.3377 13.6377C22.4759 13.3273 22.8417 13.1866 23.1549 13.3232C24.6983 13.9969 25.9833 14.9076 26.9747 16.0301C27.7727 16.9335 28.3804 17.9725 28.7815 19.1183C29.4644 21.0686 29.311 22.6548 29.3042 22.7214C29.2715 23.0375 29.0021 23.273 28.6884 23.273Z" fill="#294C6A"/>
<path fill-rule="evenodd" clip-rule="evenodd" d="M28.6884 23.273C28.6672 23.273 28.646 23.272 28.6243 23.2698C28.2843 23.2353 28.037 22.9348 28.071 22.598C28.0723 22.5822 28.201 21.1728 27.5934 19.4715C27.2407 18.4845 26.7112 17.5902 26.0194 16.8136C25.1513 15.8388 24.0197 15.0427 22.6552 14.4472C22.342 14.3104 22.2001 13.948 22.3377 13.6377C22.4759 13.3273 22.8417 13.1866 23.1549 13.3232C24.6983 13.9969 25.9833 14.9076 26.9747 16.0301C27.7727 16.9335 28.3804 17.9725 28.7815 19.1183C29.4644 21.0686 29.311 22.6548 29.3042 22.7214C29.2715 23.0375 29.0021 23.273 28.6884 23.273Z" fill="black" fill-opacity="0.2"/>
<path fill-rule="evenodd" clip-rule="evenodd" d="M9.12389 16.7794C6.25173 16.7794 3.9152 19.0948 3.9152 21.9409C3.9152 24.7869 6.25173 27.1023 9.12389 27.1023C11.9961 27.1023 14.3328 24.7869 14.3328 21.9409C14.3328 19.0948 11.9961 16.7794 9.12389 16.7794ZM9.12389 28.3305C5.56843 28.3305 2.67578 25.4641 2.67578 21.9409C2.67578 18.4176 5.56843 15.5513 9.12389 15.5513C12.6794 15.5513 15.5723 18.4176 15.5723 21.9409C15.5723 25.4641 12.6794 28.3305 9.12389 28.3305Z" fill="#294C6A"/>
<path fill-rule="evenodd" clip-rule="evenodd" d="M9.12389 16.7794C6.25173 16.7794 3.9152 19.0948 3.9152 21.9409C3.9152 24.7869 6.25173 27.1023 9.12389 27.1023C11.9961 27.1023 14.3328 24.7869 14.3328 21.9409C14.3328 19.0948 11.9961 16.7794 9.12389 16.7794ZM9.12389 28.3305C5.56843 28.3305 2.67578 25.4641 2.67578 21.9409C2.67578 18.4176 5.56843 15.5513 9.12389 15.5513C12.6794 15.5513 15.5723 18.4176 15.5723 21.9409C15.5723 25.4641 12.6794 28.3305 9.12389 28.3305Z" fill="black" fill-opacity="0.2"/>
<path fill-rule="evenodd" clip-rule="evenodd" d="M9.12347 25.6754C8.78139 25.6754 8.50391 25.4005 8.50391 25.0613V18.8211C8.50391 18.482 8.78139 18.207 9.12347 18.207C9.46597 18.207 9.74346 18.482 9.74346 18.8211V25.0613C9.74346 25.4005 9.46597 25.6754 9.12347 25.6754Z" fill="#294C6A"/>
<path fill-rule="evenodd" clip-rule="evenodd" d="M9.12347 25.6754C8.78139 25.6754 8.50391 25.4005 8.50391 25.0613V18.8211C8.50391 18.482 8.78139 18.207 9.12347 18.207C9.46597 18.207 9.74346 18.482 9.74346 18.8211V25.0613C9.74346 25.4005 9.46597 25.6754 9.12347 25.6754Z" fill="black" fill-opacity="0.2"/>
<path fill-rule="evenodd" clip-rule="evenodd" d="M12.2726 22.5553H5.97503C5.63295 22.5553 5.35547 22.2804 5.35547 21.9412C5.35547 21.6021 5.63295 21.3271 5.97503 21.3271H12.2726C12.6147 21.3271 12.8922 21.6021 12.8922 21.9412C12.8922 22.2804 12.6147 22.5553 12.2726 22.5553Z" fill="#294C6A"/>
<path fill-rule="evenodd" clip-rule="evenodd" d="M12.2726 22.5553H5.97503C5.63295 22.5553 5.35547 22.2804 5.35547 21.9412C5.35547 21.6021 5.63295 21.3271 5.97503 21.3271H12.2726C12.6147 21.3271 12.8922 21.6021 12.8922 21.9412C12.8922 22.2804 12.6147 22.5553 12.2726 22.5553Z" fill="black" fill-opacity="0.2"/>
</svg>
