<svg width="53" height="54" viewBox="0 0 53 54" fill="none" xmlns="http://www.w3.org/2000/svg">
<path d="M1.66797 8.25684H40.5944C42.0389 8.25684 43.21 9.42788 43.21 10.8724V51.0297H4.28358C2.83902 51.0297 1.66797 49.8587 1.66797 48.4141V8.25684Z" fill="#5F90FF"/>
<path d="M6.88281 51.9779H43.2712V40.9072" stroke="#5F90FF" stroke-width="2.15403" stroke-linecap="round" stroke-linejoin="round"/>
<path fill-rule="evenodd" clip-rule="evenodd" d="M43.204 43.9533L43.2695 9.74316L43.204 43.9533Z" stroke="#5F90FF" stroke-width="2.15403" stroke-linecap="round" stroke-linejoin="round"/>
<path fill-rule="evenodd" clip-rule="evenodd" d="M5.52932 9.13419H43.2716C41.1456 9.13419 39.4067 7.37942 39.4067 5.23416C39.4067 3.0889 41.1456 1.33398 43.2716 1.33398H5.52932C3.4099 1.33398 1.66406 3.0889 1.66406 5.23416C1.66406 7.37942 3.40313 9.13419 5.52932 9.13419Z" fill="white" stroke="#5F90FF" stroke-width="2.15403" stroke-linecap="round" stroke-linejoin="round"/>
<path d="M1.66406 6.33496V47.2843C1.66406 49.8676 3.40313 51.9806 5.52932 51.9806H6.85235" stroke="#5F90FF" stroke-width="2.15403" stroke-linecap="round" stroke-linejoin="round"/>
<path fill-rule="evenodd" clip-rule="evenodd" d="M12.0938 7.96389V24.1197L17.1677 18.7463L22.2417 24.1197V7.9502L12.0938 7.96389Z" fill="#294C6A"/>
<path fill-rule="evenodd" clip-rule="evenodd" d="M38.0687 39.2365L36.043 18.626L52.8796 30.6855L43.9112 32.2541L38.0687 39.2365Z" fill="#FE8B00"/>
<path fill-rule="evenodd" clip-rule="evenodd" d="M43.9102 32.2549L51.5543 45.4949L43.9102 32.2549Z" stroke="#FE8B00" stroke-width="2.15403" stroke-linecap="round" stroke-linejoin="round"/>
</svg>
