<svg width="12" height="12" viewBox="0 0 12 12" fill="none" xmlns="http://www.w3.org/2000/svg">
<path d="M10.2193 10.9266L10.9266 10.2193C11.024 10.1219 11.024 9.96343 10.9266 9.86592L7.06063 6L10.9266 2.13407C11.024 2.03657 11.024 1.87812 10.9266 1.78065L10.2193 1.07343C10.1219 0.97596 9.96343 0.97596 9.86592 1.07343L6 4.93936L2.13407 1.07313C2.03657 0.975624 1.87812 0.975624 1.78065 1.07313L1.07313 1.78031C0.975624 1.87781 0.975624 2.03626 1.07313 2.13376L4.93936 6L1.07313 9.86592C0.975624 9.96343 0.975624 10.1219 1.07313 10.2193L1.78031 10.9266C1.87781 11.024 2.03626 11.024 2.13376 10.9266L6 7.06063L9.86592 10.9266C9.96343 11.024 10.1219 11.024 10.2193 10.9266Z" fill="#D80004" stroke="#D80004"/>
</svg>
