<svg width="16" height="16" viewBox="0 0 16 16" fill="none" xmlns="http://www.w3.org/2000/svg">
<path d="M13.9509 0.313814C14.3693 -0.104605 15.0477 -0.104605 15.4661 0.313814C15.8845 0.732233 15.8845 1.41062 15.4661 1.82904L9.406 7.89L15.4661 13.9509C15.8845 14.3693 15.8845 15.0477 15.4661 15.4661C15.0477 15.8845 14.3693 15.8845 13.9509 15.4661L7.89 9.406L1.82904 15.4661C1.44051 15.8546 0.82782 15.8824 0.407265 15.5494L0.313814 15.4661C-0.104605 15.0477 -0.104605 14.3693 0.313814 13.9509L6.374 7.89L0.313814 1.82904C-0.104605 1.41062 -0.104605 0.732233 0.313814 0.313814C0.732233 -0.104605 1.41062 -0.104605 1.82904 0.313814L7.89 6.374L13.9509 0.313814Z" fill="white"/>
</svg>
