<svg width="32" height="32" viewBox="0 0 32 32" fill="none" xmlns="http://www.w3.org/2000/svg">
<g clip-path="url(#clip0_183:1859)">
<path d="M20.3327 23.8386C21.1156 23.8386 21.751 23.2032 21.751 22.4203V12.6072C21.751 12.2322 21.6003 11.8687 21.3343 11.6027L18.8553 9.12373C18.5893 8.85774 18.2288 8.70703 17.8537 8.70703H11.8206C11.0377 8.70998 10.4023 9.34538 10.4023 10.1283V22.4203C10.4023 23.2032 11.0377 23.8386 11.8206 23.8386H20.3327ZM20.3327 22.8931H11.8206C11.5606 22.8931 11.3478 22.6804 11.3478 22.4203V10.1283C11.3478 9.8682 11.5606 9.65275 11.8206 9.65275H17.0233V12.7284C17.0233 13.1215 17.3395 13.4356 17.7326 13.4356H20.8056V22.4203C20.8056 22.6804 20.5928 22.8931 20.3327 22.8931ZM20.7908 12.492H17.969V9.67018C18.0517 9.69088 18.1256 9.73227 18.1877 9.79432L20.6667 12.2733C20.7287 12.3353 20.7701 12.4092 20.7908 12.492ZM16.0764 21.4748C16.3016 21.4748 16.5123 21.3835 16.6701 21.2178L18.6833 19.0973C18.9141 18.8549 18.9771 18.497 18.8441 18.1861C18.7138 17.8814 18.4303 17.692 18.1052 17.692H16.5495V15.0907C16.5495 14.96 16.4437 14.8542 16.3131 14.8542H15.8402C15.7096 14.8542 15.6038 14.96 15.6038 15.0907V17.692H14.0475C13.7224 17.692 13.439 17.8814 13.3087 18.1861C13.1757 18.497 13.2383 18.8546 13.4694 19.0967L15.4827 21.218C15.6405 21.3832 15.8512 21.4748 16.0764 21.4748ZM16.0767 20.47L14.3377 18.6377H17.8156L16.0767 20.47Z" fill="#F47216"/>
</g>
<defs>
<clipPath id="clip0_183:1859">
<rect width="11.5" height="15.7368" fill="white" transform="translate(10.25 8.63135)"/>
</clipPath>
</defs>
</svg>
