<svg width="32" height="32" viewBox="0 0 32 32" fill="none" xmlns="http://www.w3.org/2000/svg">
<path fill-rule="evenodd" clip-rule="evenodd" d="M21.6296 23.4287C21.6296 23.7442 21.3643 24 21.037 24C20.7097 24 20.4444 23.7442 20.4444 23.4287C20.4444 23.1131 20.7097 22.8573 21.037 22.8573C21.3643 22.8573 21.6296 23.1131 21.6296 23.4287ZM23.4073 23.4287C23.4073 23.7442 23.1421 24 22.8148 24C22.4875 24 22.2222 23.7442 22.2222 23.4287C22.2222 23.1131 22.4875 22.8573 22.8148 22.8573C23.1421 22.8573 23.4073 23.1131 23.4073 23.4287ZM21.1877 13.4248L18.4706 10.8052L19.8628 9.39231L22.5798 12.0119L21.1877 13.4248ZM9.18518 22.8573V20.2288L17.6542 11.6339L20.3712 14.2534L11.8935 22.8573H9.18518ZM23.8263 11.5979L20.2708 8.16984C20.158 8.06104 20.0179 7.98516 19.8443 8.00246C19.6846 8.00469 19.5324 8.06885 19.4224 8.18045L8.16319 19.6072C8.05844 19.7133 8 19.8544 8 20.0006V23.4287C8 23.7444 8.26504 24 8.59259 24H19.2592C19.5868 24 19.8518 23.7444 19.8518 23.4287C19.8518 23.1129 19.5868 22.8573 19.2592 22.8573H13.5281L23.8368 12.3952C24.0584 12.1709 24.0538 11.8171 23.8263 11.5979Z" fill="black"/>
</svg>
