<svg width="80" height="70" viewBox="0 0 80 70" fill="none" xmlns="http://www.w3.org/2000/svg">
<path fill-rule="evenodd" clip-rule="evenodd" d="M72.8913 33.3471L29.2685 66.2826C21.5138 72.1383 10.5074 70.5617 4.68504 62.7621L3.51736 61.198C-2.30447 53.3984 -0.736854 42.3289 7.01781 36.4732L50.6406 3.53766C58.3958 -2.31752 69.4022 -0.741444 75.224 7.05817L76.3917 8.62226C82.2141 16.4224 80.6465 27.4919 72.8913 33.3471Z" fill="#F6FAFF"/>
<path fill-rule="evenodd" clip-rule="evenodd" d="M26.6667 60.5569C22.9848 60.5569 20 57.5722 20 53.8903V15.3337C20 11.6518 22.9848 8.66699 26.6667 8.66699H52.7551C56.437 8.66699 59.4218 11.6518 59.4218 15.3337V53.8903C59.4218 57.5722 56.437 60.5569 52.7551 60.5569H26.6667Z" fill="#5F90FF"/>
<path fill-rule="evenodd" clip-rule="evenodd" d="M26.4421 12.249H52.9686C54.3454 12.249 55.4614 13.2104 55.4614 14.3962V15.8295V18.696V20.1293C55.4614 21.3152 54.3454 22.2765 52.9686 22.2765H26.4421C25.0653 22.2765 23.9492 21.3152 23.9492 20.1293V18.696V15.8295V14.3962C23.9492 13.2104 25.0653 12.249 26.4421 12.249Z" fill="#FE8B00"/>
<path fill-rule="evenodd" clip-rule="evenodd" d="M28.7891 31.1704H33.7909H28.7891Z" stroke="#294C6A" stroke-width="1.43237" stroke-linejoin="round"/>
<path fill-rule="evenodd" clip-rule="evenodd" d="M46.6953 31.1704H51.6971H46.6953Z" stroke="#294C6A" stroke-width="1.43237" stroke-linejoin="round"/>
<path fill-rule="evenodd" clip-rule="evenodd" d="M49.1968 33.6717V28.6699V33.6717Z" stroke="#294C6A" stroke-width="1.43237" stroke-linejoin="round"/>
<path fill-rule="evenodd" clip-rule="evenodd" d="M29.5074 46.396C29.5074 46.9454 29.0633 47.3896 28.5184 47.3896C27.9689 47.3896 27.5247 46.9454 27.5247 46.396C27.5247 45.851 27.9689 45.4023 28.5184 45.4023C29.0633 45.4023 29.5074 45.851 29.5074 46.396Z" fill="#294C6A" stroke="#294C6A" stroke-width="0.389232"/>
<path fill-rule="evenodd" clip-rule="evenodd" d="M34.8473 51.5776C34.8473 52.1271 34.4031 52.5712 33.8582 52.5712C33.3087 52.5712 32.8646 52.1271 32.8646 51.5776C32.8646 51.0327 33.3087 50.5839 33.8582 50.5839C34.4031 50.5839 34.8473 51.0327 34.8473 51.5776Z" fill="#294C6A" stroke="#294C6A" stroke-width="0.389232"/>
<path fill-rule="evenodd" clip-rule="evenodd" d="M29.3516 51.7441L33.1338 46.0127L29.3516 51.7441Z" stroke="#294C6A" stroke-width="1.43237" stroke-linejoin="round"/>
<path fill-rule="evenodd" clip-rule="evenodd" d="M47.1094 46.9663H51.6884H47.1094Z" stroke="#294C6A" stroke-width="1.43237" stroke-linejoin="round"/>
<path fill-rule="evenodd" clip-rule="evenodd" d="M47.1094 50.7905H51.6884H47.1094Z" stroke="#294C6A" stroke-width="1.43237" stroke-linejoin="round"/>
<path fill-rule="evenodd" clip-rule="evenodd" d="M40.1186 28.0127V52.6722V28.0127Z" stroke="#294C6A" stroke-width="1.43237" stroke-linejoin="round"/>
<path fill-rule="evenodd" clip-rule="evenodd" d="M27.4727 40.0249H52.7686H27.4727Z" stroke="#294C6A" stroke-width="1.43237" stroke-linejoin="round"/>
</svg>
