<svg width="80" height="70" viewBox="0 0 80 70" fill="none" xmlns="http://www.w3.org/2000/svg">
<path fill-rule="evenodd" clip-rule="evenodd" d="M72.8913 33.3471L29.2685 66.2826C21.5138 72.1383 10.5074 70.5617 4.68504 62.7621L3.51736 61.198C-2.30447 53.3984 -0.736854 42.3289 7.01781 36.4732L50.6406 3.53766C58.3958 -2.31752 69.4022 -0.741444 75.224 7.05817L76.3917 8.62226C82.2141 16.4224 80.6464 27.4919 72.8913 33.3471" fill="#F6FAFF"/>
<circle cx="39.7183" cy="35.0513" r="27.0513" fill="#5F90FF"/>
<circle cx="39.7183" cy="35.0513" r="27.0513" fill="#FE8B00"/>
<circle r="20.81" transform="matrix(1 0 0 -1 39.7182 35.19)" fill="#5F90FF"/>
<circle r="20.81" transform="matrix(1 0 0 -1 39.7182 35.19)" fill="#4C73CC"/>
<ellipse rx="3.15598" ry="3.15598" transform="matrix(1 0 0 -1 39.2663 44.6575)" fill="#294C6A"/>
<ellipse rx="3.15598" ry="3.15598" transform="matrix(1 0 0 -1 39.2663 44.6575)" fill="#EFF7FF"/>
<path d="M35.5273 25.6998C35.3557 23.5242 37.0749 21.6641 39.2573 21.6641V21.6641C41.4465 21.6641 43.1681 23.5354 42.9859 25.717L42.0338 37.1196C41.912 38.5772 40.6935 39.6982 39.2308 39.6982V39.6982C37.7632 39.6982 36.5423 38.5698 36.4269 37.1067L35.5273 25.6998Z" fill="#294C6A"/>
<path d="M35.5273 25.6998C35.3557 23.5242 37.0749 21.6641 39.2573 21.6641V21.6641C41.4465 21.6641 43.1681 23.5354 42.9859 25.717L42.0338 37.1196C41.912 38.5772 40.6935 39.6982 39.2308 39.6982V39.6982C37.7632 39.6982 36.5423 38.5698 36.4269 37.1067L35.5273 25.6998Z" fill="#EFF7FF"/>
</svg>
