<svg width="80" height="70" viewBox="0 0 80 70" fill="none" xmlns="http://www.w3.org/2000/svg">
<path fill-rule="evenodd" clip-rule="evenodd" d="M72.8913 33.3471L29.2685 66.2826C21.5138 72.1383 10.5074 70.5617 4.68504 62.7621L3.51736 61.198C-2.30447 53.3984 -0.736854 42.3289 7.01781 36.4732L50.6406 3.53766C58.3958 -2.31752 69.4022 -0.741444 75.224 7.05817L76.3917 8.62226C82.2141 16.4224 80.6465 27.4919 72.8913 33.3471" fill="#F6FAFF"/>
<path fill-rule="evenodd" clip-rule="evenodd" d="M60 22.2363V58.9884C60 60.0313 59.012 60.9113 57.8412 60.9113H22.1588C20.988 60.9113 20 60.0463 20 58.9884V11.6299C20 10.5713 20.9703 9.70703 22.1588 9.70703H45.9326" fill="#5F90FF"/>
<path fill-rule="evenodd" clip-rule="evenodd" d="M60.0013 22.2363L48.3676 22.14C47.0419 22.14 45.957 21.1545 45.957 19.9484V9.70703L60.0013 22.2363Z" fill="#294C6A"/>
<path fill-rule="evenodd" clip-rule="evenodd" d="M61.9602 52.0319C61.6133 51.6039 61.6791 50.9756 62.1071 50.6287V50.6287C62.5352 50.2817 63.1635 50.3475 63.5104 50.7756L65.7282 53.5122C66.0752 53.9403 66.0094 54.5686 65.5813 54.9155V54.9155C65.1532 55.2624 64.525 55.1966 64.1781 54.7686L61.9602 52.0319Z" fill="#294C6A"/>
<path fill-rule="evenodd" clip-rule="evenodd" d="M62.9844 55.1807L66.4084 52.2467L73.595 60.6336C75.028 62.3059 71.6036 65.2402 70.171 63.5676L62.9844 55.1807Z" fill="#FE8B00"/>
<path d="M62.7312 50.9794C59.2633 54.1201 53.9213 53.8381 50.7992 50.3504C47.677 46.8627 47.957 41.4898 51.4249 38.3491C54.8923 35.2087 60.234 35.4903 63.3561 38.978C66.4782 42.4657 66.1986 47.839 62.7312 50.9794V50.9794Z" fill="#FE8B00"/>
<mask id="mask0_62:6232" style="mask-type:alpha" maskUnits="userSpaceOnUse" x="25" y="33" width="5" height="5">
<path fill-rule="evenodd" clip-rule="evenodd" d="M25.3359 33.0859H29.3944V37.1442H25.3359V33.0859Z" fill="white"/>
</mask>
<g mask="url(#mask0_62:6232)">
<path fill-rule="evenodd" clip-rule="evenodd" d="M27.365 33.0859C26.2447 33.0859 25.3359 33.9944 25.3359 35.1147C25.3359 36.236 26.2447 37.1444 27.365 37.1444C28.4857 37.1444 29.3944 36.236 29.3944 35.1147C29.3944 33.9944 28.4857 33.0859 27.365 33.0859" fill="white"/>
</g>
<path fill-rule="evenodd" clip-rule="evenodd" d="M34.0134 26.3359C32.8931 26.3359 31.9844 27.2444 31.9844 28.3647C31.9844 29.4857 32.8931 30.3941 34.0134 30.3941C35.1341 30.3941 36.0428 29.4857 36.0428 28.3647C36.0428 27.2444 35.1341 26.3359 34.0134 26.3359" fill="white"/>
<path fill-rule="evenodd" clip-rule="evenodd" d="M40.6583 32.373C39.5376 32.373 38.6289 33.2815 38.6289 34.4018C38.6289 35.5228 39.5376 36.4312 40.6583 36.4312C41.7786 36.4312 42.6874 35.5228 42.6874 34.4018C42.6874 33.2815 41.7786 32.373 40.6583 32.373" fill="white"/>
<mask id="mask1_62:6232" style="mask-type:alpha" maskUnits="userSpaceOnUse" x="45" y="29" width="5" height="5">
<path fill-rule="evenodd" clip-rule="evenodd" d="M45.2773 29.3027H49.3357V33.3612H45.2773V29.3027Z" fill="white"/>
</mask>
<g mask="url(#mask1_62:6232)">
<path fill-rule="evenodd" clip-rule="evenodd" d="M47.3064 29.3027C46.1861 29.3027 45.2773 30.2112 45.2773 31.3318C45.2773 32.4528 46.1861 33.3612 47.3064 33.3612C48.4271 33.3612 49.3358 32.4528 49.3358 31.3318C49.3358 30.2112 48.4271 29.3027 47.3064 29.3027" fill="white"/>
</g>
<path d="M28.5234 33.8839L32.93 29.5166" stroke="white" stroke-width="0.917653" stroke-linecap="round" stroke-linejoin="round"/>
<path d="M35.2578 29.5166L39.4782 33.0862" stroke="white" stroke-width="0.917653" stroke-linecap="round" stroke-linejoin="round"/>
<path d="M42.3242 33.8839L45.7594 32.0586" stroke="white" stroke-width="0.917653" stroke-linecap="round" stroke-linejoin="round"/>
<path d="M54 45.264L56.0735 47.5982L60.6667 42.3779" stroke="#39546A" stroke-width="1.33333" stroke-linecap="round" stroke-linejoin="round"/>
<rect x="25.4961" y="44.7217" width="16.86" height="1.30554" rx="0.652768" fill="#294C6A"/>
<rect x="25.4961" y="49.9443" width="16.86" height="1.30553" rx="0.652767" fill="#294C6A"/>
</svg>
