<svg width="32" height="32" viewBox="0 0 32 32" fill="none" xmlns="http://www.w3.org/2000/svg">
<path fill-rule="evenodd" clip-rule="evenodd" d="M24.7284 16.3715C24.9034 16.5375 25.0003 16.7615 25.0003 17.0003C25.0003 17.2391 24.9034 17.4625 24.7278 17.629L22.4865 19.7578C22.3615 19.8759 21.9881 20.1278 21.5215 19.9262C21.1993 19.7881 21 19.489 21 19.1459V17.5H12.25C12.1119 17.5 12 17.3881 12 17.25V16.75C12 16.6119 12.1119 16.5 12.25 16.5H18.0003V12.5H14.7509C14.3353 12.5 14.0009 12.1678 14.0009 11.7522V8.5H8.49969C8.2247 8.5 7.99969 8.72781 7.99969 9.0028V22.0003C7.99969 22.2753 8.2247 22.5003 8.49969 22.5003H17.5003C17.7753 22.5003 18.0003 22.2753 18.0003 22.0003V18.5H19V22.0003C19 22.8281 18.3281 23.5 17.5003 23.5H8.49969C7.67187 23.5 7 22.8281 7 22.0003V9.0028C7 8.17499 7.67187 7.50311 8.49969 7.5H14.879C15.2756 7.5 15.6568 7.65936 15.9381 7.94061L18.5594 10.5619C18.8406 10.8428 19 11.2272 19 11.624V16.5H21V14.8537C21 14.5103 21.1993 14.2115 21.5215 14.0734C21.8475 13.9328 22.2265 13.9978 22.4853 14.2416L24.7284 16.3715ZM15.0009 11.5022H17.9847C17.9628 11.4147 17.919 11.3365 17.8534 11.2709L15.2322 8.64969C15.1665 8.58407 15.0884 8.54031 15.0009 8.51843V11.5022ZM23.9375 17L22 18.84V15.16L23.9375 17Z" fill="black"/>
</svg>
