<svg width="80" height="70" viewBox="0 0 80 70" fill="none" xmlns="http://www.w3.org/2000/svg">
<path fill-rule="evenodd" clip-rule="evenodd" d="M72.8913 33.3471L29.2685 66.2826C21.5138 72.1383 10.5074 70.5617 4.68504 62.7621L3.51736 61.198C-2.30447 53.3984 -0.736854 42.3289 7.01781 36.4732L50.6406 3.53766C58.3958 -2.31752 69.4022 -0.741444 75.224 7.05817L76.3917 8.62226C82.2141 16.4224 80.6465 27.4919 72.8913 33.3471Z" fill="#F6FAFF"/>
<path d="M40.0372 50.015V56.4916C40.0372 59.2556 37.8095 61.4963 35.0615 61.4963C32.3136 61.4963 30.0859 59.2556 30.0859 56.4916V42.0664" stroke="#294C6A" stroke-width="1.33333" stroke-linecap="round" stroke-linejoin="round"/>
<path d="M27.4492 40.3003H32.7175V42.033C32.7175 43.0271 31.9116 43.833 30.9175 43.833H29.2492C28.2551 43.833 27.4492 43.0271 27.4492 42.033V40.3003Z" fill="#FE8B00"/>
<path d="M67.5818 61.4968C67.5818 61.4968 57.7118 61.4968 54.9639 61.4968C52.2159 61.4968 49.9883 59.2561 49.9883 56.4921V48.0142" stroke="#294C6A" stroke-width="1.33333" stroke-linecap="round" stroke-linejoin="round"/>
<path d="M49.9864 48.0138V46.4824C49.9864 43.7184 47.7587 41.4778 45.0108 41.4778C42.2628 41.4778 40.0352 43.7184 40.0352 46.4824L40.0352 50.0151L40.0352 46.4824" stroke="#294C6A" stroke-width="1.33333" stroke-linecap="round" stroke-linejoin="round"/>
<path d="M20.4297 35.3577C20.4297 38.3746 22.9901 40.8198 26.1481 40.8198H34.4684C37.6269 40.8198 40.1868 38.3746 40.1868 35.3577V26.689H20.4297V35.3577Z" fill="#5F90FF"/>
<path d="M40.8565 21.1558H19.7595C18.5183 21.1558 17.5117 22.2768 17.5117 23.6603V26.6888C17.5117 26.7542 17.5596 26.8071 17.6179 26.8071H42.9976C43.0564 26.8071 43.1038 26.7542 43.1038 26.6888V23.6603C43.1038 22.2768 42.0977 21.1558 40.8565 21.1558Z" fill="#EFF7FF"/>
<path d="M27.4771 10.4937C27.4771 9.37298 26.5737 8.46436 25.459 8.46436C24.3448 8.46436 23.4414 9.37298 23.4414 10.4937V21.1558H27.4771V10.4937Z" fill="#5F90FF"/>
<path d="M37.1802 10.4937C37.1802 9.37298 36.2769 8.46436 35.1621 8.46436C34.0479 8.46436 33.1445 9.37298 33.1445 10.4937V21.1558H37.1802V10.4937Z" fill="#5F90FF"/>
<path d="M72.7687 18.8958C72.7687 25.3584 67.5602 30.5965 61.1359 30.5965C54.7116 30.5965 49.5039 25.3584 49.5039 18.8958C49.5039 12.4339 54.7116 7.1958 61.1359 7.1958C67.5602 7.1958 72.7687 12.4339 72.7687 18.8958Z" fill="#FFB33C"/>
<path d="M68.919 27.591C64.1442 31.9153 56.789 31.527 52.4903 26.7249C48.1916 21.9229 48.5771 14.5252 53.3518 10.2009C58.126 5.87705 65.4807 6.26475 69.7794 11.0668C74.0781 15.8689 73.6932 23.2671 68.919 27.591Z" fill="#FE8B00"/>
<path d="M56.4336 18.9147H66.0489" stroke="#294C6A" stroke-width="1.33333" stroke-linecap="round"/>
<path d="M61.2415 14.0791V23.7506" stroke="#294C6A" stroke-width="1.33333" stroke-linecap="round"/>
<path fill-rule="evenodd" clip-rule="evenodd" d="M18.0848 26.8239C17.4382 26.8239 16.9141 26.2967 16.9141 25.6463V23.2912C16.9141 21.9905 17.9624 20.936 19.2555 20.936H40.9141C42.2072 20.936 43.2555 21.9905 43.2555 23.2912V25.6463C43.2555 26.2967 42.7314 26.8239 42.0848 26.8239C42.0848 26.8239 36.8727 26.8239 34.2667 26.8239C33.2523 26.8239 31.9292 26.8239 30.2973 26.8239C29.2489 26.8239 26.7697 26.8239 26.7697 26.8239H18.0848Z" fill="#294C6A"/>
<path d="M68.9151 27.5914C64.1403 31.9158 56.7851 31.5275 52.4864 26.7254C48.1877 21.9233 48.5732 14.5257 53.3479 10.2014C58.1221 5.87754 65.4768 6.26524 69.7755 11.0673C74.0742 15.8694 73.6893 23.2676 68.9151 27.5914Z" fill="#FE8B00"/>
</svg>
