<svg width="1920" height="451" viewBox="0 0 1920 451" fill="none" xmlns="http://www.w3.org/2000/svg">
<path d="M973.5 365C264 184.5 7.83337 383.385 0 451V1.2393C550.705 0.528329 1621.5 -0.000578462 1920 0L1920 339.5C1920 339.5 1683 545.5 973.5 365Z" fill="#CBDBFB"/>
<circle cx="1903" cy="163" r="93" fill="white"/>
<g clip-path="url(#clip0)">
<path fill-rule="evenodd" clip-rule="evenodd" d="M822.97 185.973H642.933C638.046 185.973 634.082 182.012 634.082 177.122V76.8512C634.082 71.9613 638.046 68 642.933 68H822.97C827.857 68 831.822 71.9613 831.822 76.8512V177.125C831.818 182.012 827.857 185.973 822.97 185.973Z" fill="white"/>
<path d="M803.062 173.728H729.524C726.241 173.728 723.58 171.067 723.58 167.784V148.782C723.58 145.5 726.241 142.838 729.524 142.838H803.065C806.347 142.838 809.008 145.5 809.008 148.782V167.784C809.008 171.067 806.347 173.728 803.062 173.728Z" fill="#82B1FF"/>
<path d="M707.133 112.976H656.219C652.937 112.976 650.276 110.315 650.276 107.033V88.0304C650.276 84.748 652.937 82.0869 656.219 82.0869H707.133C710.415 82.0869 713.077 84.748 713.077 88.0304V107.033C713.08 110.315 710.419 112.976 707.133 112.976Z" fill="#82B1FF"/>
<path d="M707.133 173.347H656.219C652.937 173.347 650.276 170.686 650.276 167.403V130.861C650.276 127.579 652.937 124.918 656.219 124.918H707.133C710.415 124.918 713.077 127.579 713.077 130.861V167.4C713.08 170.682 710.419 173.347 707.133 173.347Z" fill="#82B1FF"/>
<path fill-rule="evenodd" clip-rule="evenodd" d="M608.607 285.223C604.553 285.223 601.239 281.905 601.239 277.851V268.103C601.239 264.049 604.556 260.731 608.607 260.731C612.661 260.731 615.979 264.049 615.979 268.103V277.851C615.976 281.905 612.658 285.223 608.607 285.223Z" fill="#294C6A"/>
<path d="M608.284 315.664C606.635 315.664 605.3 314.329 605.3 312.679V257.769C605.3 256.12 606.635 254.785 608.284 254.785C609.934 254.785 611.269 256.12 611.269 257.769V312.676C611.272 314.325 609.934 315.664 608.284 315.664Z" fill="#294C6A"/>
<path d="M586.278 321.066H585.625C584.28 321.066 583.191 319.978 583.191 318.633V315.683C583.191 314.338 584.28 313.25 585.625 313.25H586.278C587.623 313.25 588.712 314.338 588.712 315.683V318.633C588.712 319.974 587.62 321.066 586.278 321.066Z" fill="#193F5F"/>
<path d="M630.947 321.066H630.294C628.949 321.066 627.86 319.978 627.86 318.633V315.683C627.86 314.338 628.949 313.25 630.294 313.25H630.947C632.292 313.25 633.381 314.338 633.381 315.683V318.633C633.381 319.974 632.292 321.066 630.947 321.066Z" fill="#193F5F"/>
<path d="M608.947 321.066H608.294C606.949 321.066 605.86 319.978 605.86 318.633V315.683C605.86 314.338 606.949 313.25 608.294 313.25H608.947C610.292 313.25 611.381 314.338 611.381 315.683V318.633C611.381 319.974 610.292 321.066 608.947 321.066Z" fill="#193F5F"/>
<path d="M634.742 318.079H582.662C581.83 318.079 581.157 317.406 581.157 316.574V314.748C581.157 313.916 581.83 313.243 582.662 313.243H634.742C635.574 313.243 636.247 313.916 636.247 314.748V316.574C636.247 317.406 635.574 318.079 634.742 318.079Z" fill="#294C6A"/>
<path d="M596.813 253.955L585.154 211.668L575.194 215.944L585.951 258.243C586.851 261.506 595.846 262.72 599.231 262.72H623.069V256.972H600.774C598.924 256.972 597.303 255.736 596.813 253.955Z" fill="#294C6A"/>
<path d="M585.666 268.023H635.546C640.166 268.023 643.91 264.276 643.91 259.658C643.91 255.037 640.163 251.294 635.546 251.294H585.666C581.045 251.294 577.302 255.041 577.302 259.658C577.302 264.276 581.045 268.023 585.666 268.023Z" fill="#193F5F"/>
<path d="M605.687 240.317H578.723C573.273 240.317 568.812 235.856 568.812 230.405V189.454C568.812 184.004 573.273 179.543 578.723 179.543H605.687C611.137 179.543 615.598 184.004 615.598 189.454V230.409C615.598 235.859 611.137 240.317 605.687 240.317Z" fill="#193F5F"/>
<path fill-rule="evenodd" clip-rule="evenodd" d="M633.877 175.611C633.877 175.611 640.855 187.017 642.142 207.487C642.142 207.487 637.092 207.006 637.105 206.283C637.121 205.556 633.877 175.611 633.877 175.611Z" fill="#FFC461"/>
<path fill-rule="evenodd" clip-rule="evenodd" d="M681.396 321.511L691.628 320.82L688.243 309.74L678.447 310.406L681.396 321.511Z" fill="#FFBE9C"/>
<path fill-rule="evenodd" clip-rule="evenodd" d="M635.414 321.428L646.369 320.685L644.992 310.076L634.037 310.816L635.414 321.428Z" fill="#FFBE9C"/>
<path fill-rule="evenodd" clip-rule="evenodd" d="M705.775 328.076C705.807 328.473 705.66 328.848 705.372 329.114C705.08 329.383 701.715 329.815 701.276 329.796C697.119 329.594 689.155 328.774 683.647 328.509C682.789 328.467 681.95 328.112 681.326 327.522C680.698 326.933 680.336 326.165 680.326 325.39C680.278 322.482 680.214 318.479 680.214 318.479L690.686 317.515C690.686 317.515 699.291 322.921 703.62 324.826C705.433 325.627 705.634 326.315 705.775 328.076Z" fill="#193F5F"/>
<path fill-rule="evenodd" clip-rule="evenodd" d="M631.075 218.541C631.075 218.541 637.531 237.086 637.085 240.701C636.25 247.474 632.554 252.274 632.554 252.274L600.877 252.024C591.834 251.954 585.009 243.788 586.543 234.873C586.55 234.828 586.559 234.786 586.566 234.745C586.713 233.893 586.844 233.041 586.96 232.183C587.504 228.173 589.131 216.139 589.131 216.139C598.971 222.518 616.799 225.144 632.423 220.93L631.075 218.541Z" fill="#F7C4C9"/>
<path fill-rule="evenodd" clip-rule="evenodd" d="M657.128 219.812L645.478 209.603L636.662 198.565L631.439 210.929C636.627 218.704 643.848 224.949 655.21 228.084L656.594 223.94L657.128 219.812Z" fill="#FFC461"/>
<path fill-rule="evenodd" clip-rule="evenodd" d="M690.462 313.08C690.458 311.408 680.31 275.065 674.581 259.783C672.999 255.56 669.727 252.085 665.461 250.093L631.44 234.207L609.212 251.963L655.998 270.121C657.817 281.658 666.473 298.359 676.359 314.194L690.462 313.08Z" fill="#82B1FF"/>
<path fill-rule="evenodd" clip-rule="evenodd" d="M682.052 313.746C680.691 303.156 671.914 293.69 667.956 288.422C662.922 281.726 665.993 270.579 663.902 264.997C663.309 263.412 661.644 261.356 659.575 259.3C654.983 254.74 649.084 251.567 642.677 249.793C634.005 247.394 628.865 243.952 623.46 240.586L609.212 251.967L655.998 270.124C657.817 281.662 666.473 298.362 676.359 314.198L682.052 313.746Z" fill="#6DA0F3"/>
<path fill-rule="evenodd" clip-rule="evenodd" d="M660.453 329.77C660.485 330.167 660.337 330.542 660.049 330.808C659.758 331.077 656.392 331.509 655.953 331.49C651.797 331.288 643.832 330.469 638.324 330.2C637.466 330.158 636.627 329.802 636.003 329.213C635.375 328.624 635.013 327.855 635.004 327.08C634.956 324.173 634.892 320.17 634.892 320.17L646.526 319.93C646.526 319.93 653.965 324.615 658.294 326.52C660.11 327.317 660.312 328.009 660.453 329.77Z" fill="#193F5F"/>
<path fill-rule="evenodd" clip-rule="evenodd" d="M622.588 138.201C622.588 138.201 630.079 141.586 624.212 148.564C618.345 155.542 622.588 138.201 622.588 138.201Z" fill="#42373B"/>
<path fill-rule="evenodd" clip-rule="evenodd" d="M597.226 171.044C597.226 171.044 597.3 166.83 601.479 164.761C603.48 163.772 606.676 162.971 610.811 163.938C619.066 165.869 621.846 167.128 621.846 167.128L624.958 177.429L614.557 182.374L594.075 167.041L597.226 171.044Z" fill="#F7AD36"/>
<path fill-rule="evenodd" clip-rule="evenodd" d="M623.972 144.173C623.869 141.676 622.742 139.328 620.856 137.686C618.97 136.043 616.488 135.252 614 135.498C609.183 135.976 605.574 140.123 605.77 144.961C605.882 147.744 606.007 150.789 606.112 153.428C606.186 155.212 606.99 156.89 608.338 158.062C609.686 159.234 611.457 159.798 613.234 159.625C614.884 159.461 616.635 159.288 618.256 159.128C621.791 158.779 624.443 155.734 624.298 152.182C624.199 149.729 624.081 146.867 623.972 144.173Z" fill="#FFBE9C"/>
<path fill-rule="evenodd" clip-rule="evenodd" d="M601.271 170.061L607.8 153.111L619.674 158.408L616.379 174.733L601.271 170.061Z" fill="#FFBE9C"/>
<path fill-rule="evenodd" clip-rule="evenodd" d="M611.012 143.098C611.012 143.098 612.175 151.401 605.655 151.593C605.655 151.593 602.34 144.106 601.959 140.267C601.252 133.122 615.556 131.701 621.349 134.74C627.142 137.779 623.591 143.267 611.012 143.098Z" fill="#42373B"/>
<path fill-rule="evenodd" clip-rule="evenodd" d="M617.932 167.035C613.993 172.979 604.569 167.592 603.032 165.488C602.788 165.155 598.632 167.586 598.094 167.957C589.809 173.673 588.73 198.21 587.251 207.054C586.562 211.166 582.704 225.003 584.763 228.593C585.445 229.781 591.91 228.872 593.185 229.099C598.587 230.06 622.8 231.943 626.124 228.231C629.425 224.549 626.95 217.689 627.587 213.331C630.94 190.428 624.529 170.558 624.529 170.558L617.932 167.035Z" fill="white"/>
<path fill-rule="evenodd" clip-rule="evenodd" d="M626.889 199.353C622.192 211.88 587.19 198.434 591.171 192.417C596.724 184.02 588.734 198.21 587.254 207.055C586.566 211.166 582.707 225.004 584.766 228.593C585.448 229.781 588.209 239.388 589.502 239.436C606.635 240.054 632.987 241.028 634.171 236.189C635.843 229.371 628.154 217.702 627.591 213.334C626.13 202.001 626.889 199.353 626.889 199.353Z" fill="#D8E8FF"/>
<path fill-rule="evenodd" clip-rule="evenodd" d="M605.796 148.122C606.977 147.821 608.252 148.801 608.636 150.313C609.02 151.824 608.373 153.294 607.189 153.595C606.004 153.896 604.732 152.916 604.348 151.405C603.967 149.896 604.614 148.426 605.796 148.122Z" fill="#FFBE9C"/>
<path fill-rule="evenodd" clip-rule="evenodd" d="M624.321 152.189C624.744 151.443 626.524 163.378 619.351 163.983C612.178 164.588 609.164 161.665 608.678 147.956C608.678 147.956 611.553 156.285 615.745 156.41C624.5 156.675 623.815 153.082 624.321 152.189Z" fill="#42373B"/>
<path fill-rule="evenodd" clip-rule="evenodd" d="M594.238 249.421L597.844 244.233L622.134 242.597L640.079 250.612C645.488 253.027 648.915 258.173 648.867 263.802L648.745 277.902L648.71 277.883L649.677 316.945L633.736 316.525C628.702 297.744 626.726 281.771 628.298 267.216L594.238 249.421Z" fill="#82B1FF"/>
<path fill-rule="evenodd" clip-rule="evenodd" d="M621.846 167.128C621.846 167.128 626.239 189.483 626.348 202.946C626.457 216.408 632.458 243.852 632.458 243.852C634.623 239.83 642.305 241.037 642.994 237.371C642.994 237.371 636.266 193.086 635.078 181.474C633.918 170.132 629.534 170.212 621.846 167.128Z" fill="#FFC461"/>
<path fill-rule="evenodd" clip-rule="evenodd" d="M615.678 142.838C615.678 142.838 631.568 141.593 627.879 134.548C624.465 128.031 613.34 141.756 611.002 139.252L615.678 142.838Z" fill="#42373B"/>
<path fill-rule="evenodd" clip-rule="evenodd" d="M635.081 222.746C635.081 222.746 639.096 219.998 641.661 221.333C642.885 221.967 644.915 222.003 646.74 223.018C648.745 224.132 650.913 227.2 650.913 227.2C650.913 227.2 650.922 230.04 648.393 230.537C647.49 230.713 644.784 228.298 644.784 228.298C642.34 229.173 639.42 229.153 636.109 228.407L635.081 222.746Z" fill="#FFBE9C"/>
<path fill-rule="evenodd" clip-rule="evenodd" d="M653.773 222.518C653.773 222.518 657.577 219.482 660.232 220.626C661.497 221.17 663.527 221.055 665.423 221.932C667.504 222.896 669.89 225.797 669.89 225.797C669.89 225.797 670.108 228.631 667.62 229.31C666.733 229.554 663.854 227.344 663.854 227.344C661.481 228.394 658.567 228.59 655.211 228.087L653.773 222.518Z" fill="#FFBE9C"/>
<path fill-rule="evenodd" clip-rule="evenodd" d="M635.081 222.745L622.345 221.807L621.846 228.599L637.79 227.719L635.081 222.745Z" fill="#FFBE9C"/>
<path d="M630.237 229.21H671.925V226.562H630.237V229.21Z" fill="#193F5F"/>
<path fill-rule="evenodd" clip-rule="evenodd" d="M578.56 212.316C578.707 206.126 579.191 198.776 580.366 191.232C581.746 182.39 583.53 175.755 586.633 172.091C589.355 168.879 591.949 168.386 595.411 166.679L601.476 164.761C605.184 182.006 607.743 198.459 606.135 215.537L626.387 219.553L626.342 229.205H603.941H595.071L588.836 227.178L582.909 223.863C580.126 220.84 578.454 216.77 578.56 212.316Z" fill="#FFC461"/>
<path fill-rule="evenodd" clip-rule="evenodd" d="M661.311 229.211H709.15L723.587 197.041H676.842C676.176 197.041 675.571 197.431 675.299 198.04L661.311 229.211Z" fill="#D8E8FF"/>
<path fill-rule="evenodd" clip-rule="evenodd" d="M663.165 229.211H711.008L724.778 198.523C725.088 197.829 724.582 197.044 723.82 197.044H678.28C677.867 197.044 677.492 197.287 677.322 197.665L663.165 229.211Z" fill="#193F5F"/>
<path fill-rule="evenodd" clip-rule="evenodd" d="M606.631 208.351C606.631 208.351 607.035 225.467 610.983 233.332C612.729 236.81 621.842 246.077 621.842 246.077C621.842 246.077 586.876 249.536 585.762 235.433C584.599 220.706 581.247 204.905 581.247 204.905L606.631 208.351Z" fill="#FFC461"/>
<path d="M698.312 216.518C700.766 215.557 702.196 213.35 701.506 211.588C700.817 209.826 698.268 209.176 695.814 210.136C693.36 211.097 691.93 213.304 692.62 215.066C693.31 216.828 695.858 217.478 698.312 216.518Z" fill="#D8E8FF"/>
<path fill-rule="evenodd" clip-rule="evenodd" d="M578.56 212.316C578.707 206.126 579.191 198.776 580.366 191.232C581.746 182.39 583.53 175.755 586.633 172.091C589.355 168.879 591.949 168.386 595.411 166.679L601.476 164.761C578.246 176.658 585.765 202.123 584.161 219.201C587.895 221.189 589.659 220.552 598.35 222.291C602.994 223.706 607.541 225.756 614.522 226.989C619.767 225.877 622.71 225.519 626.345 226.563V229.211H603.945H595.074L588.839 227.184L582.912 223.87C580.126 220.84 578.454 216.77 578.56 212.316Z" fill="#FFC461"/>
<path d="M509.037 200.445C516.502 195.894 520.71 193.886 528.101 189.144L532.03 191.577C518.625 203.314 515.301 209.53 507.891 211.172C496.987 203.81 505.931 212.079 509.037 200.445Z" fill="#FFD7C2"/>
<path d="M508.115 199.673C512.692 200.204 515.084 208.338 513.473 209.722L500.375 213.994L490.41 204.813L486.737 187.101L500.375 201.642L508.115 199.673Z" fill="#FEB02C"/>
<path fill-rule="evenodd" clip-rule="evenodd" d="M468.31 295.647C464.256 295.647 460.942 292.329 460.942 288.275V278.527C460.942 274.473 464.259 271.155 468.31 271.155C472.365 271.155 475.679 274.473 475.679 278.527V288.275C475.679 292.329 472.361 295.647 468.31 295.647Z" fill="#294C6A"/>
<path d="M467.987 326.088C466.338 326.088 465.003 324.752 465.003 323.103V268.193C465.003 266.544 466.338 265.208 467.987 265.208C469.637 265.208 470.972 266.544 470.972 268.193V323.1C470.975 324.749 469.637 326.088 467.987 326.088Z" fill="#294C6A"/>
<path d="M445.981 331.49H445.328C443.983 331.49 442.894 330.401 442.894 329.056V326.107C442.894 324.762 443.983 323.673 445.328 323.673H445.981C447.326 323.673 448.415 324.762 448.415 326.107V329.056C448.415 330.398 447.323 331.49 445.981 331.49Z" fill="#42373B"/>
<path d="M490.65 331.49H489.997C488.652 331.49 487.563 330.401 487.563 329.056V326.107C487.563 324.762 488.652 323.673 489.997 323.673H490.65C491.995 323.673 493.084 324.762 493.084 326.107V329.056C493.084 330.398 491.995 331.49 490.65 331.49Z" fill="#42373B"/>
<path d="M468.65 331.49H467.997C466.652 331.49 465.563 330.401 465.563 329.056V326.107C465.563 324.762 466.652 323.673 467.997 323.673H468.65C469.995 323.673 471.084 324.762 471.084 326.107V329.056C471.084 330.398 469.995 331.49 468.65 331.49Z" fill="#42373B"/>
<path d="M494.445 328.502H442.365C441.533 328.502 440.86 327.83 440.86 326.997V325.172C440.86 324.339 441.533 323.667 442.365 323.667H494.445C495.277 323.667 495.95 324.339 495.95 325.172V326.997C495.95 327.83 495.277 328.502 494.445 328.502Z" fill="#294C6A"/>
<path d="M433.754 264.379L422.095 222.092H416.347L428.916 267.623C429.816 270.886 432.784 273.147 436.169 273.147H460.007V267.399H437.719C435.868 267.395 434.248 266.159 433.754 264.379Z" fill="#294C6A"/>
<path d="M445.369 278.447H495.249C499.87 278.447 503.613 274.7 503.613 270.082C503.613 265.461 499.866 261.718 495.249 261.718H445.369C440.748 261.718 437.005 265.464 437.005 270.082C437.005 274.7 440.748 278.447 445.369 278.447Z" fill="#193F5F"/>
<path d="M413.977 190.053L431.093 251.125C432.182 255.003 436.207 257.267 440.085 256.181C443.963 255.096 446.227 251.067 445.139 247.189L428.022 186.114C426.933 182.236 422.908 179.972 419.03 181.058C415.152 182.147 412.888 186.172 413.977 190.053Z" fill="#193F5F"/>
<path d="M423.856 238.684L428.301 237.464L421.384 212.293L416.939 213.517C414.089 214.301 412.411 217.247 413.195 220.098L417.275 234.943C418.057 237.794 421.003 239.468 423.856 238.684Z" fill="#193F5F"/>
<path d="M537.637 321.012L545.448 321.316L517.306 250.116L459.824 244.957L463.926 255.618C511.285 257.978 509.86 264.485 509.86 264.485C508.663 281.822 519.98 294.67 537.637 321.012Z" fill="#FFBE9C"/>
<path d="M506.098 321.46L512.14 321.339L516.825 268.241C520.489 239.35 506.908 250.378 460.938 247.688L460.996 254.401C507.907 256.78 504.705 266.268 504.705 266.268C500.209 283.74 503.568 289.956 506.098 321.46Z" fill="#FFD7C2"/>
<path d="M458.844 266.028L505.297 268.372L517.306 249.873L464.586 233.589C459.299 233.589 453.423 230.912 453.423 237.662L450.096 253.808C450.099 260.555 453.557 266.028 458.844 266.028Z" fill="#82B1FF"/>
<path d="M463.043 262.486C455.684 262.047 455.101 252.466 459.251 238.136L460.875 233.287C456.949 232.845 453.589 232.557 453.589 237.662L450.262 253.808C448.651 261.103 453.724 266.028 459.011 266.028L505.464 268.372L506.575 266.662L463.043 262.486Z" fill="#6DA0F3"/>
<path d="M525.244 219.335L530.967 218.653C532.11 218.515 533.266 218.797 534.221 219.437L540.881 223.917L538.143 225.868L530.903 226.319C529.305 226.418 527.621 225.884 526.192 224.817L523.807 223.043L525.244 219.335Z" fill="#FFD7C2"/>
<path d="M503.165 219.047C511.907 219.137 516.541 219.662 525.322 219.553L527.365 223.7C509.781 226.56 503.667 230.072 496.514 227.546C491.159 215.521 494.368 227.27 503.165 219.047Z" fill="#FFD7C2"/>
<path d="M529.132 193.278L534.874 193.787C536.02 193.89 537.167 193.576 538.102 192.906L541.893 190.188C543.216 189.24 543.181 187.264 541.829 186.361L534.579 186.127C532.981 186.076 531.313 186.662 529.913 187.767L527.582 189.611L529.132 193.278Z" fill="#FFD7C2"/>
<path d="M481.28 144.602C481.28 144.602 497.109 139.85 494.807 154.795C492.767 168.037 485.136 174.096 485.136 174.096L478.433 146.489L481.28 144.602Z" fill="#42373B"/>
<path d="M471.539 182.669L480.396 186.668L488.418 169.299L479.746 164.934L471.539 182.669Z" fill="#FFBE9C"/>
<path d="M474.254 158.795C474.296 151.218 474.581 149.873 480.745 147.382C487.105 145.454 483.272 148.596 490.301 148.791C494.435 148.903 495.191 152.573 495.437 157.319C495.524 158.974 496.552 160.342 498.319 161.841C498.925 162.881 497.25 164.05 496.814 164.63C496.299 165.315 496.974 170.064 495.485 171.114C494.281 171.963 487.095 173.087 487.095 173.087C478.949 170.698 478.433 155.446 478.433 155.446C477.508 153.005 474.241 160.806 474.254 158.795Z" fill="#FFD7C2"/>
<path d="M479.929 144.602C479.929 144.602 465.656 146.924 472.643 163.544C473.345 165.212 474.379 167.124 476.243 168.857C477.552 170.074 478.766 170.218 480.518 169.862C482.045 169.552 482.782 168.408 482.852 168.245C485.981 161.184 485.408 162.852 486.698 151.737L491.489 148.535L486.189 144.599L479.929 144.602Z" fill="#42373B"/>
<path d="M484.319 164.361C484.319 164.361 479.112 154.603 482.221 151.068L492.174 146.834C492.171 146.834 493.093 158.35 484.319 164.361Z" fill="#42373B"/>
<path d="M483.63 179.297L491.931 194.267C494.854 198.261 496.359 205.053 495.854 209.978L486.122 219.579L482.173 230.62C483.313 234.649 485.241 238.52 481.808 238.908L452.552 237.905C454.3 202.004 460.244 181.135 474.548 175.825C476.588 175.069 479.573 177.161 483.63 179.297Z" fill="#FFC461"/>
<path d="M486.625 180.046L474.097 172.578L470.981 176.03L488.152 186.127L486.625 180.046Z" fill="#FEB02C"/>
<path d="M496.542 227.946C501.115 226.537 504.036 223.787 504.506 219.047L485.014 193.14C483.602 190.819 481.421 187.719 478.814 187.216C475.404 186.556 471.497 188.596 473.54 195.629C475.295 201.678 488.626 219.467 496.542 227.946Z" fill="#FFC461"/>
<path fill-rule="evenodd" clip-rule="evenodd" d="M545.445 320.49L552.375 324.903C553.774 325.969 560.534 327.083 560.781 327.842C561.12 328.886 560.255 331.32 557.367 331.362L553.588 331.486L539.69 330.689C539.69 330.689 535.002 329.949 537.634 321.009L545.445 320.49Z" fill="#193F5F"/>
<path fill-rule="evenodd" clip-rule="evenodd" d="M513.912 320.49L520.841 324.903C522.241 325.969 529.001 327.083 529.247 327.842C529.587 328.886 528.722 331.32 525.834 331.362L522.055 331.486L508.157 330.689C508.157 330.689 503.469 329.949 506.101 321.009L513.912 320.49Z" fill="#193F5F"/>
<path d="M725.047 127.835C725.047 127.835 729.684 120.239 738.276 120.198C744.844 120.166 741.395 121.61 749.269 120.034C753.913 119.106 761.099 108.298 772.556 107.504C793.304 106.069 800.484 85.4878 809.514 90.5891L809.633 134.531L725.063 134.438L725.047 127.835Z" fill="#FFC461"/>
<path d="M724.518 134.599C724.489 134.599 724.461 134.599 724.429 134.592C724.137 134.551 723.9 134.288 723.897 134.006L723.577 83.7683C723.573 83.4833 723.807 83.2912 724.102 83.3296C724.393 83.3712 724.63 83.6338 724.633 83.9156L724.954 134.154C724.957 134.41 724.765 134.592 724.518 134.599Z" fill="#294C6A"/>
<path d="M809.722 135.05C809.694 135.05 809.662 135.05 809.633 135.044C809.341 135.002 809.104 134.74 809.104 134.455L809.008 83.7522C809.008 83.4672 809.245 83.2751 809.537 83.3135C809.828 83.3551 810.065 83.6177 810.065 83.9027L810.161 134.605C810.161 134.861 809.972 135.044 809.722 135.05Z" fill="#294C6A"/>
<path d="M784.037 134.406C784.008 134.406 783.976 134.406 783.947 134.4C783.656 134.358 783.419 134.096 783.419 133.811L783.281 81.6867C783.281 81.4049 783.512 81.2096 783.81 81.2512C784.101 81.2928 784.338 81.5554 784.338 81.8404L784.476 133.965C784.476 134.218 784.284 134.403 784.037 134.406Z" fill="#294C6A"/>
<path d="M752.884 135.425C752.855 135.425 752.827 135.425 752.795 135.419C752.503 135.377 752.266 135.114 752.263 134.833L751.927 81.8598C751.924 81.578 752.157 81.3794 752.452 81.421C752.743 81.4627 752.98 81.7253 752.984 82.0071L753.32 134.98C753.323 135.236 753.134 135.419 752.884 135.425Z" fill="#294C6A"/>
<path d="M724.925 120.166C724.618 120.172 724.291 120.025 724.067 119.75C723.724 119.327 723.759 118.76 724.144 118.485L738.814 107.955C738.858 107.923 738.906 107.898 738.958 107.875L752.917 101.849C752.977 101.823 753.038 101.804 753.105 101.794L777.574 97.6312L805.313 79.5926C805.71 79.3332 806.299 79.4773 806.626 79.9096C806.952 80.3451 806.895 80.9055 806.498 81.1649L778.625 99.2932C778.535 99.3509 778.433 99.3925 778.321 99.4085L753.784 103.581L739.992 109.537L725.389 120.019C725.249 120.115 725.092 120.163 724.925 120.166Z" fill="#294C6A"/>
<path d="M803.391 86.0101C803.183 86.0133 802.959 85.9492 802.764 85.8083C802.318 85.4913 802.168 84.9149 802.427 84.521L804.704 81.0561L801.098 81.3955C800.612 81.4435 800.093 81.0721 799.971 80.5693C799.846 80.0666 800.154 79.6214 800.653 79.5734L806.395 79.029C806.77 78.9874 807.141 79.1827 807.365 79.5061C807.589 79.8296 807.612 80.2267 807.426 80.5117L804.041 85.661C803.894 85.8884 803.654 86.0037 803.391 86.0101Z" fill="#294C6A"/>
<path fill-rule="evenodd" clip-rule="evenodd" d="M822.269 331.951C821.123 332.383 819.826 331.842 819.377 330.737L779.867 233.89C779.416 232.785 779.982 231.539 781.129 231.107C782.275 230.675 783.572 231.216 784.021 232.321L823.531 329.168C823.979 330.273 823.416 331.519 822.269 331.951Z" fill="#193F5F"/>
<path fill-rule="evenodd" clip-rule="evenodd" d="M597.172 334.587C596.025 335.019 594.719 334.449 594.254 333.312L553.623 233.605C553.159 232.468 553.716 231.196 554.863 230.764C556.009 230.332 557.316 230.902 557.78 232.039L598.414 331.746C598.875 332.883 598.321 334.154 597.172 334.587Z" fill="#193F5F"/>
<path fill-rule="evenodd" clip-rule="evenodd" d="M478.311 336.149C477.168 335.707 476.633 334.414 477.117 333.261L519.49 232.17C519.973 231.017 521.289 230.444 522.433 230.886C523.576 231.328 524.111 232.622 523.627 233.774L481.257 334.865C480.774 336.018 479.454 336.591 478.311 336.149Z" fill="#294C6A"/>
<path fill-rule="evenodd" clip-rule="evenodd" d="M711.805 341.526C710.662 341.084 710.143 339.745 710.649 338.541L754.943 232.689C755.449 231.482 756.785 230.863 757.928 231.305C759.071 231.747 759.59 233.086 759.084 234.29L714.786 340.146C714.284 341.35 712.948 341.968 711.805 341.526Z" fill="#294C6A"/>
<path fill-rule="evenodd" clip-rule="evenodd" d="M800.481 233.669H512.067C511.212 233.669 510.511 232.967 510.511 232.112V230.226C510.511 229.371 511.212 228.67 512.067 228.67H800.481C801.336 228.67 802.037 229.371 802.037 230.226V232.112C802.037 232.967 801.336 233.669 800.481 233.669Z" fill="#294C6A"/>
<path fill-rule="evenodd" clip-rule="evenodd" d="M907.844 310.508L899.916 313.49L903.989 324.323L911.918 321.339L907.844 310.508Z" fill="#FFD7C2"/>
<path fill-rule="evenodd" clip-rule="evenodd" d="M850.395 311.575L858.853 312.029L858.228 323.587L849.768 323.129L850.395 311.575Z" fill="#FFD7C2"/>
<path fill-rule="evenodd" clip-rule="evenodd" d="M868.219 221.961C876.571 249.273 894.894 308.949 897.751 316.055C903.384 316.993 907.428 315.164 910.406 311.472C909.145 307.12 904.921 270.924 898.811 254.532C894.747 233.633 891.388 215.867 889.835 207.595C889.726 206.228 889.607 205.037 889.47 204.201C889.329 203.336 889.204 202.468 889.095 201.604C888.583 197.543 887.042 185.365 887.042 185.365C877.336 190.508 864.267 191.827 848.932 185.711L846.254 185.525L845.88 221.673L845.819 221.676L848.967 315.93C853.168 317.934 857.302 317.835 861.385 316.128C863.685 296.232 866.118 272.884 865.1 260.482L867.671 221.97L868.219 221.961Z" fill="#294C6A"/>
<path fill-rule="evenodd" clip-rule="evenodd" d="M858.811 321.444L858.522 326.213C858.362 328.867 856.326 331.029 853.687 331.349L836.465 333.444C835.674 333.54 834.892 333.181 834.454 332.515L834.239 332.188C833.608 331.234 833.855 329.953 834.79 329.297L841.954 326.136L849.959 319.059C852.672 318.482 856.21 318.799 858.811 321.444Z" fill="#193F5F"/>
<path fill-rule="evenodd" clip-rule="evenodd" d="M913.372 328.688L908.29 337.815C907.809 338.679 906.868 339.185 905.878 339.108L904.793 339.025C903.368 338.913 902.314 337.645 902.471 336.223L903.387 327.855L902.186 320.141C903.906 316.833 906.371 314.995 910.403 316.257L913.638 324C914.272 325.518 914.176 327.247 913.372 328.688Z" fill="#193F5F"/>
<path fill-rule="evenodd" clip-rule="evenodd" d="M884.775 205.171C884.775 205.171 859.691 217.084 845.928 216.905L846.075 202.831L884.775 205.171Z" fill="#193F5F"/>
<path d="M903.267 212.685C904.516 210.833 904.285 208.493 902.75 207.457C901.215 206.421 898.958 207.082 897.708 208.934C896.459 210.785 896.69 213.126 898.225 214.162C899.76 215.198 902.017 214.536 903.267 212.685Z" fill="white"/>
<path fill-rule="evenodd" clip-rule="evenodd" d="M819.989 162.974L825.728 178.72L840.023 169.049L844.74 207.077C844.74 207.077 864.883 210.557 890.306 202.885L887.862 167.358C887.862 167.358 888.205 142.114 876.248 140.263C864.29 138.412 845.483 140.074 838.233 148.906L819.989 162.974Z" fill="#82B1FF"/>
<path fill-rule="evenodd" clip-rule="evenodd" d="M867.275 143.607L865.229 127.099L853.505 129.174L852.816 144.41C856.778 141.323 861.824 141.8 867.275 143.607Z" fill="#FFD7C2"/>
<path fill-rule="evenodd" clip-rule="evenodd" d="M858.561 151.1C858.638 151.725 858.196 152.292 857.572 152.368C856.947 152.445 856.38 152.003 856.304 151.379C856.227 150.754 856.669 150.188 857.293 150.111C857.918 150.034 858.484 150.476 858.561 151.1Z" fill="#6DA0F3"/>
<path fill-rule="evenodd" clip-rule="evenodd" d="M859.288 156.954C859.365 157.578 858.923 158.145 858.298 158.222C857.674 158.299 857.107 157.857 857.03 157.232C856.953 156.608 857.395 156.041 858.02 155.964C858.641 155.887 859.211 156.332 859.288 156.954Z" fill="#6DA0F3"/>
<path d="M859.926 163.364C860.156 162.78 859.868 162.12 859.284 161.89C858.7 161.66 858.04 161.948 857.81 162.532C857.58 163.116 857.868 163.776 858.452 164.006C859.036 164.236 859.696 163.948 859.926 163.364Z" fill="#6DA0F3"/>
<path fill-rule="evenodd" clip-rule="evenodd" d="M852.742 136.645L848.291 142.505L852.585 149.131C854.35 146.758 856.271 144.686 858.295 142.813L852.742 136.645Z" fill="#D8E8FF"/>
<path fill-rule="evenodd" clip-rule="evenodd" d="M858.205 142.819L866.839 135.425L872.401 139.815C868.648 141.74 865.273 150.629 865.273 150.629C865.273 150.629 861.186 144.414 858.205 142.819Z" fill="#D8E8FF"/>
<path fill-rule="evenodd" clip-rule="evenodd" d="M859.653 131.124C859.653 131.124 853.947 136.235 854.821 138.278L853.172 136.446L853.383 131.761C855.644 132.136 857.783 132.098 859.653 131.124Z" fill="#FFBE9C"/>
<path fill-rule="evenodd" clip-rule="evenodd" d="M863.224 207.189C863.224 207.189 884.772 193.921 887.267 164.057L891.984 202.084C883.658 205.405 873.151 206.103 863.224 207.189Z" fill="#6DA0F3"/>
<path fill-rule="evenodd" clip-rule="evenodd" d="M825.026 179.521L840.381 168.953L840.026 162.17L824.988 173.632L825.026 179.521Z" fill="#6DA0F3"/>
<path fill-rule="evenodd" clip-rule="evenodd" d="M796.411 137.811C796.411 137.811 790.89 135.127 791.485 132.805C792.081 130.484 800.759 136.459 800.759 136.459L798.976 140.318L796.411 137.811Z" fill="#FFD7C2"/>
<path fill-rule="evenodd" clip-rule="evenodd" d="M803.741 149.351C803.741 149.351 800.032 146.572 796.593 143.799C792.833 140.763 793.026 138.707 796.503 136.408C797.477 135.764 800.759 136.459 800.759 136.459L805.617 141.051C805.617 141.051 811.849 145.534 809.716 148.519C807.58 151.503 803.741 149.351 803.741 149.351Z" fill="#FFD7C2"/>
<path fill-rule="evenodd" clip-rule="evenodd" d="M826.23 171.083L808.861 144.324L802.809 148.743C802.809 148.743 814.926 178.704 817.834 179.755C820.742 180.805 830.288 181.66 826.23 171.083Z" fill="#FFD7C2"/>
<path fill-rule="evenodd" clip-rule="evenodd" d="M850.699 110.443C850.699 110.443 842.921 113.815 848.858 121.104C854.795 128.392 850.699 110.443 850.699 110.443Z" fill="#42373B"/>
<path fill-rule="evenodd" clip-rule="evenodd" d="M849.175 116.579C849.319 114.005 850.52 111.603 852.492 109.938C854.465 108.276 857.036 107.501 859.598 107.792C864.558 108.359 868.212 112.698 867.934 117.681C867.774 120.547 867.271 121.623 867.12 124.345C867.018 126.183 865.833 128.995 864.424 130.183C863.015 131.371 861.83 132.892 859.998 132.684C858.301 132.488 856.498 132.283 854.83 132.091C851.189 131.675 848.505 128.489 848.71 124.832C848.854 122.305 849.018 119.356 849.175 116.579Z" fill="#FFD7C2"/>
<path fill-rule="evenodd" clip-rule="evenodd" d="M862.557 115.679C862.557 115.679 861.225 124.223 867.944 124.527C867.944 124.527 868.478 115.778 869.212 111.865C869.942 107.952 858.055 103.853 852.031 106.895C846.011 109.937 849.585 115.654 862.557 115.679Z" fill="#42373B"/>
<path fill-rule="evenodd" clip-rule="evenodd" d="M866.65 121.181C865.398 121.056 864.252 122.254 864.091 123.852C863.931 125.45 864.818 126.852 866.07 126.977C867.323 127.102 868.469 125.904 868.629 124.306C868.789 122.708 867.902 121.309 866.65 121.181Z" fill="#FFD7C2"/>
<path fill-rule="evenodd" clip-rule="evenodd" d="M930.966 202.603L896.525 220.716C894.857 221.593 892.794 220.953 891.917 219.284L881.378 199.244C880.501 197.576 881.141 195.513 882.809 194.636L917.25 176.524C918.919 175.646 920.981 176.287 921.859 177.955L932.397 197.995C933.275 199.663 932.634 201.726 930.966 202.603Z" fill="#193F5F"/>
<path fill-rule="evenodd" clip-rule="evenodd" d="M911.016 195.93C912.421 198.607 911.393 201.915 908.719 203.324C906.042 204.729 902.734 203.702 901.325 201.028C899.919 198.35 900.947 195.042 903.621 193.633C906.298 192.224 909.61 193.252 911.016 195.93Z" fill="#D8E8FF"/>
<path fill-rule="evenodd" clip-rule="evenodd" d="M914.246 201.332C914.246 201.332 918.038 208.396 918.086 210.202C918.134 212.008 917.288 212.639 914.39 213.366C911.489 214.093 909.078 215.239 908.239 212.296C907.4 209.353 908.095 211.931 908.095 211.931C908.095 211.931 905.184 210.266 904.867 207.15C904.55 204.034 905.955 203.227 905.802 200.467C905.648 197.707 914.246 201.332 914.246 201.332Z" fill="#FFD7C2"/>
<path fill-rule="evenodd" clip-rule="evenodd" d="M881.064 143.014C881.064 143.014 901.988 159.865 906.577 170.641C911.166 181.416 913.875 201.962 913.875 201.962L905.446 203.112C905.446 203.112 899.144 180.312 895.366 174.278C891.587 168.242 876.843 154.318 876.843 154.318L881.064 143.014Z" fill="#FFD7C2"/>
<path fill-rule="evenodd" clip-rule="evenodd" d="M875.334 154.412C875.334 154.412 894.023 172.066 896.409 179.319C901.593 177.958 904.587 176.994 907.485 171.301C907.485 171.301 893.357 147.36 878.258 140.843C870.086 137.311 875.334 154.412 875.334 154.412Z" fill="#82B1FF"/>
<path fill-rule="evenodd" clip-rule="evenodd" d="M896.409 179.319C896.409 179.319 893.335 173.135 887.552 166.961L881.755 160.774C881.755 160.774 896.736 167.938 900.015 178.259L896.409 179.319Z" fill="#6DA0F3"/>
<path fill-rule="evenodd" clip-rule="evenodd" d="M867.671 221.967L860.751 222.624L865.932 248.002L867.671 221.967Z" fill="#193F5F"/>
<path d="M488.027 161.979C488.501 164.345 487.582 166.417 485.968 166.609C484.358 166.801 482.663 165.04 482.19 162.677C481.716 160.31 482.635 158.238 484.249 158.046C485.863 157.854 487.553 159.615 488.027 161.979Z" fill="#FFD7C2"/>
<path d="M474.802 150.3C474.802 150.3 460.865 145.381 458.78 162.776C457.067 177.081 463.568 182.502 460.868 188.295C460.154 189.826 461.656 191.459 463.273 190.963C468.643 189.31 475.852 185.615 475.327 177.75C474.5 165.315 474.737 156.675 475.468 156.422C476.198 156.169 474.802 150.3 474.802 150.3Z" fill="#42373B"/>
<path d="M480.355 207.522C471.721 219.015 471.539 238.556 471.539 238.556L481.808 238.908C485.241 238.52 483.317 234.649 482.173 230.62L483.842 225.958L486.122 219.579L488.155 217.574L480.355 207.522Z" fill="#FEB02C"/>
<path d="M525.613 228.404H559.439V224.456H521.664C521.664 226.636 523.432 228.404 525.613 228.404Z" fill="#294C6A"/>
<path d="M560.387 227.36L574.394 193.595C574.772 192.685 574.339 191.638 573.43 191.26L573.081 191.116C572.171 190.738 571.124 191.171 570.746 192.08L556.739 225.845C556.361 226.755 556.794 227.802 557.703 228.18L558.052 228.324C558.962 228.705 560.009 228.273 560.387 227.36Z" fill="#294C6A"/>
<path fill-rule="evenodd" clip-rule="evenodd" d="M506.101 321.012C506.101 321.012 514.43 329.325 521.219 325.133L511.647 318.94L506.101 321.012Z" fill="#FFD7C2"/>
<path fill-rule="evenodd" clip-rule="evenodd" d="M537.583 321.012C537.583 321.012 545.912 329.325 552.701 325.133L543.129 318.94L537.583 321.012Z" fill="#FFBE9C"/>
</g>
<defs>
<clipPath id="clip0">
<rect width="519.788" height="274" fill="white" transform="translate(413 68)"/>
</clipPath>
</defs>
</svg>
