<svg width="80" height="70" viewBox="0 0 80 70" fill="none" xmlns="http://www.w3.org/2000/svg">
<path fill-rule="evenodd" clip-rule="evenodd" d="M72.8913 33.3471L29.2685 66.2826C21.5138 72.1383 10.5074 70.5617 4.68504 62.7621L3.51736 61.198C-2.30447 53.3984 -0.736854 42.3289 7.01781 36.4732L50.6406 3.53766C58.3958 -2.31752 69.4022 -0.741444 75.224 7.05817L76.3917 8.62226C82.2141 16.4224 80.6465 27.4919 72.8913 33.3471Z" fill="#F6FAFF"/>
<path fill-rule="evenodd" clip-rule="evenodd" d="M52.6667 24.752V58.2472C52.6667 59.1977 51.8104 59.9997 50.7957 59.9997H19.8709C18.8562 59.9997 18 59.2113 18 58.2472V15.0855C18 14.1207 18.841 13.333 19.8709 13.333H40.475" fill="#5F90FF"/>
<path fill-rule="evenodd" clip-rule="evenodd" d="M52.7907 24.533H43.1173C42.1533 24.533 41.3645 23.7432 41.3645 22.7764L40.668 13.333L52.7907 24.533Z" fill="#294C6A"/>
<path d="M24.0547 29.1054L25.8783 31.4855L29.6023 26.666" stroke="#324C5E" stroke-width="1.33333" stroke-linecap="round" stroke-linejoin="round"/>
<path d="M35.0977 29.4399H47.0599" stroke="#324C5E" stroke-width="1.33333" stroke-linecap="round" stroke-linejoin="round"/>
<path d="M24.0547 36.5914L25.8783 38.9714L29.6023 34.1519" stroke="#324C5E" stroke-width="1.33333" stroke-linecap="round" stroke-linejoin="round"/>
<path d="M35.0977 37.0503H44.3546" stroke="#324C5E" stroke-width="1.33333" stroke-linecap="round" stroke-linejoin="round"/>
<path d="M24.0039 44.0778L25.8275 46.4579L29.5516 41.6382" stroke="#324C5E" stroke-width="1.33333" stroke-linecap="round" stroke-linejoin="round"/>
<path d="M35.043 44.606H47.0052" stroke="#324C5E" stroke-width="1.33333" stroke-linecap="round" stroke-linejoin="round"/>
<path fill-rule="evenodd" clip-rule="evenodd" d="M45.9715 34.9153C47.261 34.3821 48.6801 34.9594 49.2291 36.1515L52.0293 42.232C52.2841 41.6379 52.7754 41.1298 53.4362 40.8564L53.4368 40.8562C54.6121 40.3709 55.9325 40.7894 56.538 41.7855C56.7351 41.0541 57.2783 40.4053 58.0579 40.083H58.0587C59.2336 39.5981 60.5541 40.0166 61.1597 41.0121C61.3568 40.281 61.9 39.6322 62.6801 39.3099C63.9697 38.7773 65.5046 39.3075 65.9376 40.5464L69.122 49.6632C71.7111 57.076 62.4683 64.893 55.5438 60.4121L43.5328 52.6406C42.409 51.914 42.1512 50.413 42.9592 49.3054C44.238 48.7775 46.7672 48.8059 47.8985 49.5381L50.1733 51.01L44.5404 38.0887C44.016 36.8852 44.6821 35.4483 45.9715 34.9153Z" fill="#FE8B00"/>
</svg>
