<svg width="80" height="70" viewBox="0 0 80 70" fill="none" xmlns="http://www.w3.org/2000/svg">
<path fill-rule="evenodd" clip-rule="evenodd" d="M72.8913 33.3471L29.2685 66.2826C21.5138 72.1383 10.5074 70.5617 4.68504 62.7621L3.51736 61.198C-2.30447 53.3984 -0.736854 42.3289 7.01781 36.4732L50.6406 3.53766C58.3958 -2.31752 69.4022 -0.741444 75.224 7.05817L76.3917 8.62226C82.2141 16.4224 80.6465 27.4919 72.8913 33.3471Z" fill="#F6FAFF"/>
<path d="M30 52.0835C30 49.4601 32.1266 47.3335 34.75 47.3335H45.0417C47.665 47.3335 49.7917 49.4601 49.7917 52.0835V59.2085C49.7917 59.6457 49.4372 60.0002 49 60.0002H30.7917C30.3544 60.0002 30 59.6457 30 59.2085V52.0835Z" fill="#5F90FF"/>
<path d="M11.332 52.0835C11.332 49.4601 13.4587 47.3335 16.082 47.3335H22.4154C25.0387 47.3335 27.1654 49.4601 27.1654 52.0835V59.2085C27.1654 59.6457 26.8109 60.0002 26.3737 60.0002H12.1237C11.6865 60.0002 11.332 59.6457 11.332 59.2085V52.0835Z" fill="#5F90FF"/>
<path d="M53.293 52.0835C53.293 49.4601 55.4196 47.3335 58.043 47.3335H64.3763C66.9997 47.3335 69.1263 49.4601 69.1263 52.0835V59.2085C69.1263 59.6457 68.7719 60.0002 68.3346 60.0002H54.0846C53.6474 60.0002 53.293 59.6457 53.293 59.2085V52.0835Z" fill="#5F90FF"/>
<path d="M62.9154 59.3335L62.9154 60.0002L64.2487 60.0002L64.2487 59.3335L62.9154 59.3335ZM64.2487 52.6043C64.2487 52.2361 63.9502 51.9377 63.582 51.9377C63.2138 51.9377 62.9154 52.2361 62.9154 52.6043L64.2487 52.6043ZM64.2487 59.3335L64.2487 52.6043L62.9154 52.6043L62.9154 59.3335L64.2487 59.3335Z" fill="#294C6A"/>
<path d="M15.4154 59.3335L15.4154 60.0002L16.7487 60.0002L16.7487 59.3335L15.4154 59.3335ZM16.7487 52.6043C16.7487 52.2361 16.4502 51.9377 16.082 51.9377C15.7138 51.9377 15.4154 52.2361 15.4154 52.6043L16.7487 52.6043ZM16.7487 59.3335L16.7487 52.6043L15.4154 52.6043L15.4154 59.3335L16.7487 59.3335Z" fill="#294C6A"/>
<path d="M39.3333 59.3335L39.3333 60.0002L40.6667 60.0002L40.6667 59.3335L39.3333 59.3335ZM40.6667 48.6668C40.6667 48.2986 40.3682 48.0002 40 48.0002C39.6318 48.0002 39.3333 48.2986 39.3333 48.6668L40.6667 48.6668ZM40.6667 59.3335L40.6667 48.6668L39.3333 48.6668L39.3333 59.3335L40.6667 59.3335Z" fill="#294C6A"/>
<circle cx="40.6237" cy="40.2082" r="5.54167" fill="#5F90FF"/>
<circle cx="21.6237" cy="40.2082" r="5.54167" fill="#5F90FF"/>
<circle cx="59.6237" cy="40.2082" r="5.54167" fill="#5F90FF"/>
<rect x="11.332" y="9.3335" width="58" height="18" rx="6.66667" fill="#FE8B00"/>
<path fill-rule="evenodd" clip-rule="evenodd" d="M43.7221 26.7487L40.5228 29.9347C40.2039 30.2522 39.6834 30.2513 39.3657 29.9323L36.1797 26.7329L43.7221 26.7487Z" fill="#FE8B00"/>
<path fill-rule="evenodd" clip-rule="evenodd" d="M58.2104 26.7487L55.011 29.9347C54.6922 30.2522 54.1717 30.2513 53.854 29.9323L50.668 26.7329L58.2104 26.7487Z" fill="#FE8B00"/>
<path fill-rule="evenodd" clip-rule="evenodd" d="M29.5425 26.7487L26.3431 29.9347C26.0242 30.2522 25.5038 30.2513 25.186 29.9323L22 26.7329L29.5425 26.7487Z" fill="#FE8B00"/>
<path fill-rule="evenodd" clip-rule="evenodd" d="M41.1534 18.0002C41.1534 18.6402 40.636 19.1575 40.0014 19.1575C39.3614 19.1575 38.844 18.6402 38.844 18.0002C38.844 17.3655 39.3614 16.8428 40.0014 16.8428C40.636 16.8428 41.1534 17.3655 41.1534 18.0002Z" fill="#294C6A" stroke="#294C6A" stroke-width="0.389232"/>
<path fill-rule="evenodd" clip-rule="evenodd" d="M34.4893 18.0002C34.4893 18.6402 33.972 19.1575 33.3373 19.1575C32.6973 19.1575 32.18 18.6402 32.18 18.0002C32.18 17.3655 32.6973 16.8428 33.3373 16.8428C33.972 16.8428 34.4893 17.3655 34.4893 18.0002Z" fill="#294C6A" stroke="#294C6A" stroke-width="0.389232"/>
<path fill-rule="evenodd" clip-rule="evenodd" d="M47.8213 18.0002C47.8213 18.6402 47.304 19.1575 46.6693 19.1575C46.0293 19.1575 45.512 18.6402 45.512 18.0002C45.512 17.3655 46.0293 16.8428 46.6693 16.8428C47.304 16.8428 47.8213 17.3655 47.8213 18.0002Z" fill="#294C6A" stroke="#294C6A" stroke-width="0.389232"/>
</svg>
