<svg width="11" height="11" viewBox="0 0 11 11" fill="none" xmlns="http://www.w3.org/2000/svg">
<path d="M5.9266 10.6455L6.09234 10.4798C6.20215 10.37 6.20215 10.1919 6.09234 10.0821L1.90889 5.8986H10.7187C10.874 5.8986 11 5.77267 11 5.61735V5.38298C11 5.22766 10.874 5.10173 10.7187 5.10173H1.90889L6.09234 0.918284C6.20215 0.808467 6.20215 0.630374 6.09234 0.520534L5.9266 0.354824C5.81676 0.245007 5.63869 0.245007 5.52888 0.354824L0.582363 5.30129C0.472546 5.41113 0.472546 5.5892 0.582363 5.69906L5.52888 10.6455C5.63869 10.7554 5.81676 10.7554 5.9266 10.6455Z" fill="#3469E1"/>
</svg>
