<svg width="1153" height="887" viewBox="0 0 1153 887" fill="none" xmlns="http://www.w3.org/2000/svg">
<path d="M728 779C1485.5 479.5 1010 -24.5 957 -35L-68 -60L-43.5 666C-38.8333 803.5 122 1018.6 728 779Z" fill="#CBDBFB"/>
<g clip-path="url(#clip0)">
<path fill-rule="evenodd" clip-rule="evenodd" d="M872.235 454.572H541.454C532.475 454.572 525.191 447.3 525.191 438.323V254.249C525.191 245.272 532.475 238 541.454 238H872.235C881.213 238 888.497 245.272 888.497 254.249V438.329C888.491 447.3 881.213 454.572 872.235 454.572Z" fill="white"/>
<path d="M835.656 432.091H700.545C694.514 432.091 689.625 427.206 689.625 421.18V386.296C689.625 380.27 694.514 375.385 700.545 375.385H835.661C841.692 375.385 846.581 380.27 846.581 386.296V421.18C846.581 427.206 841.692 432.091 835.656 432.091Z" fill="#82B1FF"/>
<path d="M659.406 320.566H565.863C559.833 320.566 554.943 315.681 554.943 309.655V274.771C554.943 268.746 559.833 263.86 565.863 263.86H659.406C665.437 263.86 670.326 268.746 670.326 274.771V309.655C670.332 315.681 665.443 320.566 659.406 320.566Z" fill="#82B1FF"/>
<path d="M659.406 431.392H565.863C559.833 431.392 554.943 426.506 554.943 420.481V353.399C554.943 347.373 559.833 342.488 565.863 342.488H659.406C665.437 342.488 670.326 347.373 670.326 353.399V420.475C670.332 426.5 665.443 431.392 659.406 431.392Z" fill="#82B1FF"/>
<path fill-rule="evenodd" clip-rule="evenodd" d="M478.39 636.77C470.941 636.77 464.852 630.68 464.852 623.238V605.343C464.852 597.9 470.947 591.81 478.39 591.81C485.838 591.81 491.934 597.9 491.934 605.343V623.238C491.928 630.68 485.832 636.77 478.39 636.77Z" fill="#294C6A"/>
<path d="M477.792 692.653C474.762 692.653 472.309 690.201 472.309 687.174V586.372C472.309 583.344 474.762 580.893 477.792 580.893C480.822 580.893 483.276 583.344 483.276 586.372V687.168C483.282 690.195 480.822 692.653 477.792 692.653Z" fill="#294C6A"/>
<path d="M437.361 702.57H436.161C433.69 702.57 431.689 700.571 431.689 698.102V692.688C431.689 690.219 433.69 688.22 436.161 688.22H437.361C439.832 688.22 441.833 690.219 441.833 692.688V698.102C441.833 700.565 439.826 702.57 437.361 702.57Z" fill="#193F5F"/>
<path d="M519.432 702.57H518.231C515.76 702.57 513.76 700.571 513.76 698.102V692.688C513.76 690.219 515.76 688.22 518.231 688.22H519.432C521.903 688.22 523.903 690.219 523.903 692.688V698.102C523.903 700.565 521.903 702.57 519.432 702.57Z" fill="#193F5F"/>
<path d="M479.012 702.57H477.811C475.34 702.57 473.34 700.571 473.34 698.102V692.688C473.34 690.219 475.34 688.22 477.811 688.22H479.012C481.483 688.22 483.483 690.219 483.483 692.688V698.102C483.483 700.565 481.483 702.57 479.012 702.57Z" fill="#193F5F"/>
<path d="M526.403 697.085H430.718C429.189 697.085 427.953 695.851 427.953 694.322V690.971C427.953 689.443 429.189 688.208 430.718 688.208H526.403C527.933 688.208 529.168 689.443 529.168 690.971V694.322C529.168 695.851 527.933 697.085 526.403 697.085Z" fill="#294C6A"/>
<path d="M456.72 579.371L435.298 501.742L417 509.59L436.763 587.242C438.416 593.233 454.943 595.461 461.162 595.461H504.96V584.908H463.998C460.597 584.908 457.62 582.639 456.72 579.371Z" fill="#294C6A"/>
<path d="M436.241 605.196H527.884C536.374 605.196 543.252 598.318 543.252 589.841C543.252 581.358 536.368 574.485 527.884 574.485H436.241C427.751 574.485 420.873 581.363 420.873 589.841C420.873 598.318 427.751 605.196 436.241 605.196Z" fill="#193F5F"/>
<path d="M473.023 554.333H423.483C413.469 554.333 405.273 546.144 405.273 536.139V460.962C405.273 450.956 413.469 442.767 423.483 442.767H473.023C483.037 442.767 491.233 450.956 491.233 460.962V536.145C491.233 546.15 483.037 554.333 473.023 554.333Z" fill="#193F5F"/>
<path fill-rule="evenodd" clip-rule="evenodd" d="M524.814 435.548C524.814 435.548 537.635 456.488 540 494.065C540 494.065 530.722 493.183 530.745 491.854C530.775 490.52 524.814 435.548 524.814 435.548Z" fill="#FFC461"/>
<path fill-rule="evenodd" clip-rule="evenodd" d="M612.122 703.388L630.92 702.118L624.701 681.778L606.703 683.001L612.122 703.388Z" fill="#FFBE9C"/>
<path fill-rule="evenodd" clip-rule="evenodd" d="M527.639 703.235L547.767 701.871L545.237 682.395L525.109 683.753L527.639 703.235Z" fill="#FFBE9C"/>
<path fill-rule="evenodd" clip-rule="evenodd" d="M656.914 715.439C656.973 716.168 656.702 716.856 656.173 717.344C655.637 717.838 649.454 718.631 648.648 718.596C641.011 718.226 626.378 716.721 616.258 716.233C614.682 716.156 613.14 715.504 611.993 714.422C610.84 713.341 610.175 711.93 610.157 710.507C610.069 705.169 609.951 697.821 609.951 697.821L629.19 696.051C629.19 696.051 645 705.975 652.954 709.472C656.284 710.942 656.655 712.206 656.914 715.439Z" fill="#193F5F"/>
<path fill-rule="evenodd" clip-rule="evenodd" d="M519.663 514.358C519.663 514.358 531.525 548.402 530.707 555.039C529.171 567.472 522.382 576.285 522.382 576.285L464.181 575.826C447.566 575.697 435.028 560.706 437.846 544.34C437.858 544.257 437.876 544.181 437.888 544.105C438.158 542.541 438.399 540.977 438.611 539.402C439.611 532.041 442.6 509.949 442.6 509.949C460.681 521.66 493.434 526.48 522.14 518.744L519.663 514.358Z" fill="#F7C4C9"/>
<path fill-rule="evenodd" clip-rule="evenodd" d="M567.534 516.692L546.13 497.95L529.932 477.687L520.336 500.384C529.867 514.658 543.135 526.121 564.01 531.876L566.551 524.269L567.534 516.692Z" fill="#FFC461"/>
<path fill-rule="evenodd" clip-rule="evenodd" d="M628.778 687.909C628.773 684.841 610.127 618.123 599.602 590.07C596.695 582.316 590.682 575.938 582.845 572.281L520.338 543.117L479.5 575.714L565.459 609.046C568.801 630.227 584.704 660.885 602.867 689.955L628.778 687.909Z" fill="#82B1FF"/>
<path fill-rule="evenodd" clip-rule="evenodd" d="M613.328 689.132C610.828 669.691 594.701 652.314 587.429 642.643C578.18 630.351 583.822 609.887 579.98 599.641C578.891 596.731 575.832 592.956 572.031 589.182C563.594 580.811 552.757 574.985 540.983 571.728C525.051 567.325 515.608 561.006 505.676 554.827L479.5 575.72L565.459 609.052C568.801 630.233 584.704 660.891 602.867 689.961L613.328 689.132Z" fill="#6DA0F3"/>
<path fill-rule="evenodd" clip-rule="evenodd" d="M573.642 718.549C573.701 719.278 573.431 719.965 572.901 720.453C572.366 720.947 566.182 721.741 565.376 721.706C557.739 721.335 543.107 719.83 532.987 719.336C531.41 719.26 529.869 718.607 528.721 717.526C527.568 716.444 526.903 715.033 526.886 713.611C526.797 708.273 526.68 700.924 526.68 700.924L548.055 700.483C548.055 700.483 561.722 709.084 569.677 712.582C573.013 714.046 573.384 715.315 573.642 718.549Z" fill="#193F5F"/>
<path fill-rule="evenodd" clip-rule="evenodd" d="M504.077 366.873C504.077 366.873 517.839 373.087 507.06 385.897C496.281 398.706 504.077 366.873 504.077 366.873Z" fill="#42373B"/>
<path fill-rule="evenodd" clip-rule="evenodd" d="M457.479 427.165C457.479 427.165 457.614 419.428 465.292 415.631C468.97 413.814 474.841 412.344 482.437 414.12C497.605 417.665 502.712 419.975 502.712 419.975L508.431 438.887L489.321 447.964L451.689 419.816L457.479 427.165Z" fill="#F7AD36"/>
<path fill-rule="evenodd" clip-rule="evenodd" d="M506.614 377.837C506.426 373.251 504.355 368.942 500.89 365.927C497.424 362.911 492.864 361.459 488.293 361.911C479.444 362.787 472.813 370.4 473.172 379.283C473.378 384.392 473.607 389.982 473.802 394.826C473.937 398.101 475.414 401.181 477.891 403.333C480.368 405.484 483.621 406.519 486.887 406.202C489.917 405.902 493.135 405.584 496.112 405.29C502.608 404.65 507.479 399.059 507.215 392.539C507.032 388.036 506.814 382.781 506.614 377.837Z" fill="#FFBE9C"/>
<path fill-rule="evenodd" clip-rule="evenodd" d="M464.91 425.36L476.907 394.244L498.723 403.968L492.669 433.937L464.91 425.36Z" fill="#FFBE9C"/>
<path fill-rule="evenodd" clip-rule="evenodd" d="M482.804 375.861C482.804 375.861 484.94 391.105 472.961 391.458C472.961 391.458 466.872 377.713 466.172 370.665C464.871 357.549 491.153 354.939 501.797 360.518C512.44 366.097 505.915 376.173 482.804 375.861Z" fill="#42373B"/>
<path fill-rule="evenodd" clip-rule="evenodd" d="M495.52 419.805C488.284 430.716 470.968 420.828 468.144 416.966C467.697 416.354 460.06 420.816 459.072 421.498C443.851 431.992 441.868 477.034 439.15 493.271C437.885 500.819 430.795 526.221 434.578 532.811C435.831 534.992 447.71 533.323 450.052 533.74C459.978 535.504 504.464 538.961 510.571 532.147C516.637 525.387 512.089 512.794 513.259 504.793C519.42 462.749 507.641 426.272 507.641 426.272L495.52 419.805Z" fill="white"/>
<path fill-rule="evenodd" clip-rule="evenodd" d="M511.977 479.133C503.346 502.13 439.038 477.446 446.351 466.4C456.553 450.986 441.874 477.034 439.156 493.271C437.891 500.819 430.801 526.221 434.584 532.811C435.837 534.992 440.909 552.629 443.286 552.717C474.763 553.851 523.179 555.638 525.356 546.756C528.427 534.24 514.301 512.818 513.265 504.799C510.582 483.995 511.977 479.133 511.977 479.133Z" fill="#D8E8FF"/>
<path fill-rule="evenodd" clip-rule="evenodd" d="M473.22 385.085C475.391 384.533 477.732 386.331 478.438 389.106C479.144 391.881 477.956 394.579 475.779 395.132C473.602 395.684 471.266 393.886 470.56 391.111C469.86 388.342 471.049 385.644 473.22 385.085Z" fill="#FFBE9C"/>
<path fill-rule="evenodd" clip-rule="evenodd" d="M507.257 392.551C508.034 391.181 511.305 413.091 498.126 414.202C484.946 415.313 479.41 409.946 478.516 384.779C478.516 384.779 483.799 400.07 491.501 400.299C507.586 400.787 506.327 394.191 507.257 392.551Z" fill="#42373B"/>
<path fill-rule="evenodd" clip-rule="evenodd" d="M451.986 571.047L458.611 561.523L503.238 558.519L536.21 573.233C546.147 577.666 552.443 587.113 552.354 597.448L552.131 623.332L552.066 623.297L553.843 695.005L524.554 694.235C515.305 659.756 511.675 630.433 514.564 603.715L451.986 571.047Z" fill="#82B1FF"/>
<path fill-rule="evenodd" clip-rule="evenodd" d="M502.709 419.976C502.709 419.976 510.781 461.015 510.981 485.729C511.181 510.443 522.207 560.824 522.207 560.824C526.185 553.44 540.299 555.656 541.564 548.925C541.564 548.925 529.203 467.628 527.02 446.312C524.89 425.49 516.835 425.637 502.709 419.976Z" fill="#FFC461"/>
<path fill-rule="evenodd" clip-rule="evenodd" d="M491.377 375.386C491.377 375.386 520.571 373.099 513.794 360.166C507.522 348.202 487.082 373.399 482.787 368.801L491.377 375.386Z" fill="#42373B"/>
<path fill-rule="evenodd" clip-rule="evenodd" d="M527.025 522.077C527.025 522.077 534.403 517.033 539.116 519.485C541.364 520.649 545.094 520.713 548.448 522.577C552.131 524.623 556.114 530.254 556.114 530.254C556.114 530.254 556.131 535.469 551.483 536.38C549.824 536.703 544.853 532.271 544.853 532.271C540.363 533.876 534.998 533.84 528.914 532.471L527.025 522.077Z" fill="#FFBE9C"/>
<path fill-rule="evenodd" clip-rule="evenodd" d="M561.371 521.659C561.371 521.659 568.361 516.086 573.238 518.185C575.562 519.184 579.292 518.973 582.776 520.583C586.6 522.353 590.983 527.679 590.983 527.679C590.983 527.679 591.383 532.882 586.812 534.128C585.182 534.575 579.893 530.518 579.893 530.518C575.533 532.447 570.179 532.805 564.013 531.882L561.371 521.659Z" fill="#FFBE9C"/>
<path fill-rule="evenodd" clip-rule="evenodd" d="M527.026 522.076L503.627 520.354L502.709 532.823L532.003 531.206L527.026 522.076Z" fill="#FFBE9C"/>
<path d="M518.128 533.944H594.721V529.083H518.128V533.944Z" fill="#193F5F"/>
<path fill-rule="evenodd" clip-rule="evenodd" d="M423.181 502.93C423.451 491.566 424.34 478.075 426.499 464.224C429.035 447.993 432.312 435.812 438.013 429.087C443.014 423.191 447.78 422.286 454.14 419.152L465.283 415.631C472.097 447.288 476.798 477.493 473.844 508.844L511.052 516.216L510.97 533.934H469.814H453.516L442.061 530.213L431.17 524.128C426.058 518.579 422.986 511.107 423.181 502.93Z" fill="#FFC461"/>
<path fill-rule="evenodd" clip-rule="evenodd" d="M575.219 533.946H663.114L689.637 474.888H603.754C602.53 474.888 601.418 475.605 600.918 476.722L575.219 533.946Z" fill="#D8E8FF"/>
<path fill-rule="evenodd" clip-rule="evenodd" d="M578.623 533.946H666.524L691.823 477.61C692.394 476.334 691.464 474.894 690.064 474.894H606.394C605.635 474.894 604.946 475.341 604.634 476.035L578.623 533.946Z" fill="#193F5F"/>
<path fill-rule="evenodd" clip-rule="evenodd" d="M474.756 495.652C474.756 495.652 475.498 527.073 482.752 541.511C485.959 547.896 502.703 564.909 502.703 564.909C502.703 564.909 438.461 571.258 436.413 545.368C434.277 518.332 428.117 489.326 428.117 489.326L474.756 495.652Z" fill="#FFC461"/>
<path d="M643.2 510.644C647.709 508.881 650.336 504.829 649.069 501.594C647.801 498.359 643.119 497.166 638.611 498.929C634.102 500.693 631.475 504.745 632.742 507.98C634.009 511.215 638.692 512.408 643.2 510.644Z" fill="#D8E8FF"/>
<path fill-rule="evenodd" clip-rule="evenodd" d="M423.181 502.93C423.451 491.566 424.34 478.075 426.499 464.224C429.035 447.993 432.312 435.812 438.013 429.087C443.014 423.191 447.78 422.286 454.14 419.152L465.283 415.631C422.604 437.47 436.419 484.218 433.471 515.569C440.331 519.22 443.573 518.05 459.541 521.242C468.072 523.84 476.427 527.603 489.253 529.866C498.891 527.826 504.298 527.168 510.975 529.084V533.946H469.82H453.522L442.067 530.225L431.176 524.14C426.058 518.579 422.986 511.107 423.181 502.93Z" fill="#FFC461"/>
<path d="M295.448 481.138C309.163 472.784 316.894 469.098 330.473 460.392L337.692 464.859C313.064 486.405 306.957 497.815 293.342 500.831C273.308 487.316 289.741 502.495 295.448 481.138Z" fill="#FFD7C2"/>
<path d="M293.755 479.72C302.163 480.696 306.558 495.628 303.599 498.168L279.535 506.01L261.225 489.156L254.477 456.641L279.535 483.336L293.755 479.72Z" fill="#FEB02C"/>
<path fill-rule="evenodd" clip-rule="evenodd" d="M220.62 655.906C213.172 655.906 207.082 649.815 207.082 642.373V624.478C207.082 617.036 213.177 610.945 220.62 610.945C228.069 610.945 234.158 617.036 234.158 624.478V642.373C234.158 649.815 228.063 655.906 220.62 655.906Z" fill="#294C6A"/>
<path d="M220.025 711.788C216.994 711.788 214.541 709.337 214.541 706.31V605.507C214.541 602.48 216.994 600.028 220.025 600.028C223.055 600.028 225.508 602.48 225.508 605.507V706.304C225.514 709.331 223.055 711.788 220.025 711.788Z" fill="#294C6A"/>
<path d="M179.594 721.706H178.393C175.922 721.706 173.922 719.707 173.922 717.238V711.824C173.922 709.355 175.922 707.356 178.393 707.356H179.594C182.065 707.356 184.065 709.355 184.065 711.824V717.238C184.065 719.701 182.059 721.706 179.594 721.706Z" fill="#42373B"/>
<path d="M261.664 721.706H260.464C257.993 721.706 255.992 719.707 255.992 717.238V711.824C255.992 709.355 257.993 707.356 260.464 707.356H261.664C264.135 707.356 266.135 709.355 266.135 711.824V717.238C266.135 719.701 264.135 721.706 261.664 721.706Z" fill="#42373B"/>
<path d="M221.244 721.706H220.044C217.573 721.706 215.572 719.707 215.572 717.238V711.824C215.572 709.355 217.573 707.356 220.044 707.356H221.244C223.715 707.356 225.716 709.355 225.716 711.824V717.238C225.716 719.701 223.715 721.706 221.244 721.706Z" fill="#42373B"/>
<path d="M268.636 716.221H172.951C171.421 716.221 170.186 714.987 170.186 713.458V710.107C170.186 708.579 171.421 707.344 172.951 707.344H268.636C270.165 707.344 271.401 708.579 271.401 710.107V713.458C271.401 714.987 270.165 716.221 268.636 716.221Z" fill="#294C6A"/>
<path d="M157.13 598.506L135.708 520.877H125.146L148.24 604.461C149.893 610.451 155.347 614.602 161.566 614.602H205.363V604.049H164.414C161.013 604.044 158.036 601.774 157.13 598.506Z" fill="#294C6A"/>
<path d="M178.469 624.331H270.112C278.602 624.331 285.48 617.453 285.48 608.976C285.48 600.493 278.596 593.621 270.112 593.621H178.469C169.979 593.621 163.102 600.499 163.102 608.976C163.102 617.453 169.979 624.331 178.469 624.331Z" fill="#193F5F"/>
<path d="M120.793 462.061L152.241 574.174C154.241 581.293 161.637 585.449 168.762 583.456C175.887 581.463 180.046 574.068 178.046 566.949L146.598 454.83C144.598 447.711 137.202 443.555 130.077 445.548C122.952 447.546 118.792 454.936 120.793 462.061Z" fill="#193F5F"/>
<path d="M138.945 551.335L147.111 549.095L134.403 502.889L126.236 505.134C121 506.575 117.917 511.983 119.359 517.215L126.854 544.469C128.29 549.701 133.703 552.775 138.945 551.335Z" fill="#193F5F"/>
<path d="M347.995 702.471L362.345 703.029L310.64 572.322L205.029 562.852L212.566 582.422C299.579 586.754 296.96 598.7 296.96 598.7C294.76 630.527 315.552 654.113 347.995 702.471Z" fill="#FFBE9C"/>
<path d="M290.048 703.294L301.151 703.071L309.758 605.596C316.489 552.558 291.537 572.804 207.078 567.866L207.184 580.188C293.373 584.556 287.489 601.974 287.489 601.974C279.229 634.049 285.4 645.459 290.048 703.294Z" fill="#FFD7C2"/>
<path d="M203.23 601.533L288.578 605.837L310.641 571.875L213.779 541.982C204.066 541.982 193.269 537.067 193.269 549.46L187.156 579.1C187.162 591.487 193.516 601.533 203.23 601.533Z" fill="#82B1FF"/>
<path d="M210.944 595.032C197.423 594.226 196.352 576.637 203.977 550.33L206.96 541.43C199.747 540.618 193.575 540.089 193.575 549.46L187.462 579.1C184.503 592.492 193.822 601.533 203.536 601.533L288.883 605.837L290.925 602.697L210.944 595.032Z" fill="#6DA0F3"/>
<path d="M325.226 515.816L335.74 514.564C337.84 514.311 339.964 514.828 341.717 516.004L353.955 524.228L348.925 527.808L335.622 528.637C332.686 528.82 329.591 527.838 326.967 525.88L322.584 522.623L325.226 515.816Z" fill="#FFD7C2"/>
<path d="M284.656 515.287C300.719 515.452 309.232 516.416 325.365 516.216L329.119 523.829C296.812 529.079 285.58 535.528 272.436 530.889C262.599 508.815 268.494 530.384 284.656 515.287Z" fill="#FFD7C2"/>
<path d="M332.367 467.981L342.916 468.916C345.023 469.104 347.129 468.528 348.847 467.299L355.813 462.308C358.243 460.568 358.178 456.941 355.696 455.283L342.375 454.854C339.439 454.76 336.374 455.836 333.803 457.864L329.52 461.25L332.367 467.981Z" fill="#FFD7C2"/>
<path d="M244.451 378.624C244.451 378.624 273.534 369.9 269.303 397.336C265.556 421.645 251.535 432.767 251.535 432.767L239.221 382.087L244.451 378.624Z" fill="#42373B"/>
<path d="M226.555 448.505L242.829 455.847L257.567 423.961L241.634 415.948L226.555 448.505Z" fill="#FFBE9C"/>
<path d="M231.539 404.679C231.616 390.77 232.139 388.301 243.465 383.727C255.15 380.188 248.107 385.955 261.022 386.314C268.617 386.52 270.006 393.257 270.459 401.969C270.618 405.008 272.507 407.518 275.754 410.27C276.866 412.18 273.789 414.326 272.989 415.39C272.042 416.648 273.283 425.366 270.547 427.294C268.335 428.852 255.132 430.916 255.132 430.916C240.164 426.53 239.217 398.53 239.217 398.53C237.517 394.05 231.516 408.371 231.539 404.679Z" fill="#FFD7C2"/>
<path d="M241.967 378.625C241.967 378.625 215.744 382.887 228.582 413.397C229.87 416.46 231.77 419.97 235.195 423.15C237.601 425.384 239.831 425.648 243.049 424.996C245.856 424.426 247.209 422.327 247.338 422.027C253.087 409.065 252.034 412.127 254.405 391.722L263.206 385.844L253.469 378.619L241.967 378.625Z" fill="#42373B"/>
<path d="M250.032 414.896C250.032 414.896 240.466 396.983 246.179 390.493L264.465 382.722C264.459 382.722 266.154 403.862 250.032 414.896Z" fill="#42373B"/>
<path d="M248.77 442.314L264.02 469.797C269.392 477.128 272.157 489.597 271.228 498.638L253.348 516.263L246.093 536.533C248.188 543.928 251.73 551.035 245.422 551.747L191.67 549.907C194.882 484 205.802 445.689 232.084 435.942C235.832 434.555 241.316 438.393 248.77 442.314Z" fill="#FFC461"/>
<path d="M254.269 443.69L231.252 429.981L225.527 436.318L257.075 454.854L254.269 443.69Z" fill="#FEB02C"/>
<path d="M272.49 531.624C280.892 529.037 286.258 523.987 287.123 515.287L251.309 467.728C248.715 463.466 244.708 457.775 239.919 456.853C233.653 455.641 226.475 459.386 230.228 472.296C233.453 483.401 257.946 516.057 272.49 531.624Z" fill="#FFC461"/>
<path fill-rule="evenodd" clip-rule="evenodd" d="M362.338 701.513L375.07 709.614C377.641 711.571 390.061 713.617 390.514 715.01C391.138 716.927 389.549 721.394 384.242 721.471L377.3 721.7L351.765 720.236C351.765 720.236 343.151 718.878 347.988 702.465L362.338 701.513Z" fill="#193F5F"/>
<path fill-rule="evenodd" clip-rule="evenodd" d="M304.404 701.513L317.136 709.614C319.707 711.571 332.128 713.617 332.581 715.01C333.204 716.927 331.616 721.394 326.309 721.471L319.366 721.7L293.831 720.236C293.831 720.236 285.218 718.878 290.054 702.465L304.404 701.513Z" fill="#193F5F"/>
<path d="M692.318 347.844C692.318 347.844 700.838 333.899 716.623 333.823C728.691 333.764 722.354 336.416 736.822 333.523C745.353 331.818 758.556 311.978 779.607 310.52C817.727 307.886 830.918 270.104 847.51 279.468L847.727 360.136L692.348 359.966L692.318 347.844Z" fill="#FFC461"/>
<path d="M691.347 360.259C691.294 360.259 691.241 360.259 691.182 360.248C690.647 360.171 690.211 359.689 690.206 359.172L689.617 266.947C689.611 266.423 690.041 266.071 690.582 266.141C691.118 266.218 691.553 266.7 691.559 267.217L692.147 359.442C692.153 359.913 691.8 360.248 691.347 360.259Z" fill="#294C6A"/>
<path d="M847.894 361.088C847.841 361.088 847.782 361.088 847.729 361.076C847.194 361 846.759 360.518 846.759 359.994L846.582 266.917C846.582 266.394 847.017 266.041 847.553 266.112C848.088 266.188 848.524 266.67 848.524 267.193L848.7 360.271C848.7 360.741 848.353 361.076 847.894 361.088Z" fill="#294C6A"/>
<path d="M800.701 359.906C800.648 359.906 800.589 359.906 800.536 359.895C800.001 359.818 799.565 359.336 799.565 358.813L799.312 263.125C799.312 262.608 799.736 262.249 800.283 262.326C800.819 262.402 801.254 262.884 801.254 263.407L801.507 359.095C801.507 359.56 801.154 359.901 800.701 359.906Z" fill="#294C6A"/>
<path d="M743.464 361.776C743.411 361.776 743.358 361.776 743.3 361.764C742.764 361.688 742.329 361.206 742.323 360.689L741.705 263.443C741.699 262.926 742.129 262.561 742.67 262.638C743.205 262.714 743.641 263.196 743.647 263.713L744.265 360.959C744.27 361.429 743.923 361.764 743.464 361.776Z" fill="#294C6A"/>
<path d="M692.096 333.764C691.531 333.776 690.931 333.506 690.519 333C689.89 332.224 689.954 331.184 690.66 330.678L717.613 311.349C717.695 311.29 717.784 311.243 717.878 311.202L743.524 300.138C743.636 300.091 743.748 300.056 743.872 300.038L788.828 292.396L839.792 259.281C840.521 258.805 841.604 259.069 842.204 259.863C842.804 260.663 842.698 261.691 841.969 262.168L790.758 295.447C790.593 295.553 790.405 295.629 790.199 295.659L745.119 303.318L719.778 314.253L692.949 333.494C692.69 333.67 692.402 333.758 692.096 333.764Z" fill="#294C6A"/>
<path d="M836.263 271.062C835.88 271.068 835.468 270.95 835.109 270.691C834.292 270.109 834.015 269.051 834.492 268.328L838.675 261.967L832.05 262.59C831.156 262.679 830.202 261.997 829.979 261.074C829.749 260.151 830.314 259.334 831.232 259.245L841.781 258.246C842.47 258.17 843.152 258.528 843.564 259.122C843.976 259.716 844.017 260.445 843.676 260.968L837.457 270.421C837.186 270.838 836.745 271.05 836.263 271.062Z" fill="#294C6A"/>
<path fill-rule="evenodd" clip-rule="evenodd" d="M870.944 722.552C868.838 723.346 866.455 722.353 865.631 720.324L793.039 542.535C792.21 540.506 793.251 538.22 795.357 537.426C797.464 536.632 799.847 537.626 800.67 539.654L873.262 717.444C874.086 719.472 873.05 721.759 870.944 722.552Z" fill="#193F5F"/>
<path fill-rule="evenodd" clip-rule="evenodd" d="M457.374 727.391C455.268 728.184 452.867 727.138 452.014 725.051L377.363 542.012C376.51 539.925 377.534 537.591 379.64 536.797C381.747 536.003 384.147 537.05 385 539.137L459.657 722.176C460.504 724.263 459.486 726.597 457.374 727.391Z" fill="#193F5F"/>
<path fill-rule="evenodd" clip-rule="evenodd" d="M238.998 730.259C236.898 729.448 235.915 727.073 236.804 724.957L314.655 539.378C315.544 537.261 317.962 536.209 320.062 537.02C322.163 537.832 323.145 540.207 322.257 542.323L244.411 727.902C243.523 730.018 241.099 731.071 238.998 730.259Z" fill="#294C6A"/>
<path fill-rule="evenodd" clip-rule="evenodd" d="M667.99 740.13C665.89 739.318 664.936 736.861 665.866 734.651L747.248 540.33C748.177 538.114 750.631 536.979 752.731 537.79C754.832 538.602 755.785 541.059 754.855 543.269L673.468 737.596C672.544 739.806 670.09 740.941 667.99 740.13Z" fill="#294C6A"/>
<path fill-rule="evenodd" clip-rule="evenodd" d="M830.913 542.129H301.014C299.443 542.129 298.154 540.841 298.154 539.272V535.809C298.154 534.24 299.443 532.952 301.014 532.952H830.913C832.484 532.952 833.772 534.24 833.772 535.809V539.272C833.772 540.841 832.484 542.129 830.913 542.129Z" fill="#294C6A"/>
<path fill-rule="evenodd" clip-rule="evenodd" d="M1028.17 683.188L1013.61 688.662L1021.09 708.549L1035.66 703.07L1028.17 683.188Z" fill="#FFD7C2"/>
<path fill-rule="evenodd" clip-rule="evenodd" d="M922.622 685.146L938.16 685.981L937.013 707.198L921.469 706.357L922.622 685.146Z" fill="#FFD7C2"/>
<path fill-rule="evenodd" clip-rule="evenodd" d="M955.369 520.636C970.713 570.776 1004.38 680.326 1009.63 693.371C1019.98 695.093 1027.41 691.736 1032.88 684.958C1030.56 676.969 1022.8 610.522 1011.57 580.429C1004.11 542.064 997.936 509.449 995.083 494.265C994.883 491.754 994.665 489.568 994.412 488.033C994.153 486.446 993.924 484.853 993.724 483.266C992.782 475.811 989.952 453.455 989.952 453.455C972.119 462.896 948.108 465.318 919.932 454.089L915.013 453.749L914.325 520.107L914.213 520.113L919.996 693.141C927.716 696.821 935.311 696.639 942.813 693.506C947.037 656.981 951.509 614.12 949.638 591.351L954.362 520.654L955.369 520.636Z" fill="#294C6A"/>
<path fill-rule="evenodd" clip-rule="evenodd" d="M938.084 703.265L937.554 712.018C937.26 716.892 933.518 720.86 928.67 721.448L897.028 725.292C895.575 725.469 894.139 724.81 893.333 723.588L892.939 722.988C891.78 721.236 892.233 718.885 893.951 717.679L907.113 711.877L921.821 698.885C926.805 697.827 933.306 698.409 938.084 703.265Z" fill="#193F5F"/>
<path fill-rule="evenodd" clip-rule="evenodd" d="M1038.33 716.563L1028.99 733.317C1028.11 734.904 1026.38 735.833 1024.56 735.692L1022.56 735.539C1019.95 735.333 1018.01 733.005 1018.3 730.395L1019.98 715.034L1017.78 700.872C1020.93 694.8 1025.47 691.425 1032.87 693.741L1038.82 707.956C1039.98 710.743 1039.8 713.917 1038.33 716.563Z" fill="#193F5F"/>
<path fill-rule="evenodd" clip-rule="evenodd" d="M985.788 489.815C985.788 489.815 939.702 511.684 914.414 511.355L914.685 485.518L985.788 489.815Z" fill="#193F5F"/>
<path d="M1019.76 503.608C1022.06 500.209 1021.63 495.912 1018.81 494.01C1015.99 492.109 1011.85 493.323 1009.55 496.722C1007.25 500.121 1007.68 504.418 1010.5 506.319C1013.32 508.221 1017.47 507.007 1019.76 503.608Z" fill="white"/>
<path fill-rule="evenodd" clip-rule="evenodd" d="M866.756 412.351L877.299 441.256L903.564 423.503L912.23 493.312C912.23 493.312 949.238 499.702 995.948 485.617L991.459 420.399C991.459 420.399 992.088 374.057 970.119 370.659C948.149 367.261 913.595 370.312 900.275 386.526L866.756 412.351Z" fill="#82B1FF"/>
<path fill-rule="evenodd" clip-rule="evenodd" d="M953.635 376.796L949.875 346.492L928.335 350.301L927.07 378.272C934.348 372.605 943.621 373.481 953.635 376.796Z" fill="#FFD7C2"/>
<path fill-rule="evenodd" clip-rule="evenodd" d="M937.625 390.552C937.766 391.699 936.954 392.739 935.807 392.88C934.66 393.021 933.618 392.21 933.477 391.064C933.336 389.917 934.148 388.877 935.295 388.736C936.442 388.595 937.484 389.406 937.625 390.552Z" fill="#6DA0F3"/>
<path fill-rule="evenodd" clip-rule="evenodd" d="M938.959 401.299C939.1 402.445 938.288 403.486 937.141 403.627C935.994 403.768 934.952 402.956 934.811 401.81C934.67 400.664 935.482 399.623 936.629 399.482C937.77 399.341 938.818 400.158 938.959 401.299Z" fill="#6DA0F3"/>
<path d="M940.132 413.066C940.555 411.993 940.027 410.782 938.953 410.36C937.88 409.938 936.667 410.466 936.245 411.538C935.823 412.611 936.351 413.822 937.424 414.244C938.498 414.666 939.71 414.139 940.132 413.066Z" fill="#6DA0F3"/>
<path fill-rule="evenodd" clip-rule="evenodd" d="M926.934 364.016L918.756 374.774L926.646 386.937C929.888 382.581 933.418 378.777 937.136 375.338L926.934 364.016Z" fill="#D8E8FF"/>
<path fill-rule="evenodd" clip-rule="evenodd" d="M936.971 375.35L952.833 361.776L963.053 369.836C956.157 373.369 949.956 389.688 949.956 389.688C949.956 389.688 942.448 378.277 936.971 375.35Z" fill="#D8E8FF"/>
<path fill-rule="evenodd" clip-rule="evenodd" d="M939.631 353.881C939.631 353.881 929.146 363.263 930.753 367.014L927.723 363.651L928.111 355.051C932.265 355.739 936.195 355.668 939.631 353.881Z" fill="#FFBE9C"/>
<path fill-rule="evenodd" clip-rule="evenodd" d="M946.193 493.518C946.193 493.518 985.784 469.163 990.367 414.338L999.034 484.148C983.736 490.244 964.432 491.525 946.193 493.518Z" fill="#6DA0F3"/>
<path fill-rule="evenodd" clip-rule="evenodd" d="M876.012 442.726L904.224 423.326L903.571 410.875L875.941 431.915L876.012 442.726Z" fill="#6DA0F3"/>
<path fill-rule="evenodd" clip-rule="evenodd" d="M823.434 366.156C823.434 366.156 813.291 361.23 814.385 356.967C815.48 352.705 831.424 363.675 831.424 363.675L828.147 370.759L823.434 366.156Z" fill="#FFD7C2"/>
<path fill-rule="evenodd" clip-rule="evenodd" d="M836.904 387.343C836.904 387.343 830.091 382.24 823.772 377.149C816.865 371.576 817.218 367.802 823.607 363.581C825.396 362.399 831.427 363.675 831.427 363.675L840.352 372.105C840.352 372.105 851.802 380.335 847.883 385.814C843.959 391.293 836.904 387.343 836.904 387.343Z" fill="#FFD7C2"/>
<path fill-rule="evenodd" clip-rule="evenodd" d="M878.224 427.236L846.311 378.113L835.191 386.226C835.191 386.226 857.455 441.227 862.797 443.155C868.139 445.084 885.678 446.653 878.224 427.236Z" fill="#FFD7C2"/>
<path fill-rule="evenodd" clip-rule="evenodd" d="M923.182 315.917C923.182 315.917 908.891 322.107 919.799 335.487C930.707 348.867 923.182 315.917 923.182 315.917Z" fill="#42373B"/>
<path fill-rule="evenodd" clip-rule="evenodd" d="M920.379 327.18C920.644 322.454 922.85 318.045 926.475 314.988C930.099 311.937 934.823 310.514 939.53 311.049C948.644 312.09 955.357 320.055 954.845 329.202C954.551 334.464 953.627 336.439 953.351 341.436C953.163 344.81 950.986 349.972 948.397 352.153C945.808 354.334 943.631 357.126 940.266 356.744C937.147 356.386 933.835 356.009 930.77 355.657C924.08 354.892 919.15 349.043 919.526 342.33C919.791 337.691 920.091 332.277 920.379 327.18Z" fill="#FFD7C2"/>
<path fill-rule="evenodd" clip-rule="evenodd" d="M944.964 325.528C944.964 325.528 942.517 341.213 954.861 341.771C954.861 341.771 955.843 325.71 957.191 318.527C958.532 311.343 936.692 303.818 925.625 309.403C914.564 314.988 921.13 325.481 944.964 325.528Z" fill="#42373B"/>
<path fill-rule="evenodd" clip-rule="evenodd" d="M952.485 335.628C950.185 335.398 948.078 337.597 947.784 340.531C947.49 343.464 949.12 346.039 951.42 346.268C953.721 346.497 955.827 344.299 956.121 341.365C956.416 338.432 954.786 335.863 952.485 335.628Z" fill="#FFD7C2"/>
<path fill-rule="evenodd" clip-rule="evenodd" d="M1070.65 485.1L1007.37 518.35C1004.31 519.961 1000.52 518.785 998.906 515.722L979.543 478.933C977.931 475.87 979.107 472.084 982.173 470.474L1045.45 437.224C1048.52 435.613 1052.3 436.789 1053.92 439.851L1073.28 476.64C1074.89 479.703 1073.72 483.489 1070.65 485.1Z" fill="#193F5F"/>
<path fill-rule="evenodd" clip-rule="evenodd" d="M1034 472.849C1036.58 477.764 1034.69 483.836 1029.78 486.423C1024.86 489.004 1018.78 487.117 1016.2 482.208C1013.61 477.293 1015.5 471.221 1020.41 468.634C1025.33 466.047 1031.42 467.934 1034 472.849Z" fill="#D8E8FF"/>
<path fill-rule="evenodd" clip-rule="evenodd" d="M1039.93 482.766C1039.93 482.766 1046.9 495.734 1046.99 499.05C1047.08 502.365 1045.52 503.523 1040.2 504.858C1034.87 506.192 1030.44 508.297 1028.9 502.894C1027.35 497.492 1028.63 502.224 1028.63 502.224C1028.63 502.224 1023.28 499.167 1022.7 493.447C1022.12 487.727 1024.7 486.246 1024.42 481.178C1024.14 476.111 1039.93 482.766 1039.93 482.766Z" fill="#FFD7C2"/>
<path fill-rule="evenodd" clip-rule="evenodd" d="M978.969 375.708C978.969 375.708 1017.41 406.642 1025.84 426.424C1034.28 446.206 1039.25 483.924 1039.25 483.924L1023.77 486.034C1023.77 486.034 1012.19 444.178 1005.25 433.102C998.303 422.021 971.215 396.46 971.215 396.46L978.969 375.708Z" fill="#FFD7C2"/>
<path fill-rule="evenodd" clip-rule="evenodd" d="M968.443 396.631C968.443 396.631 1002.78 429.04 1007.16 442.356C1016.69 439.857 1022.19 438.088 1027.51 427.635C1027.51 427.635 1001.56 383.686 973.815 371.723C958.8 365.239 968.443 396.631 968.443 396.631Z" fill="#82B1FF"/>
<path fill-rule="evenodd" clip-rule="evenodd" d="M1007.16 442.356C1007.16 442.356 1001.52 431.004 990.89 419.67L980.24 408.312C980.24 408.312 1007.76 421.463 1013.79 440.41L1007.16 442.356Z" fill="#6DA0F3"/>
<path fill-rule="evenodd" clip-rule="evenodd" d="M954.363 520.648L941.648 521.854L951.168 568.442L954.363 520.648Z" fill="#193F5F"/>
<path d="M256.847 410.522C257.718 414.867 256.029 418.67 253.064 419.023C250.105 419.376 246.992 416.142 246.122 411.804C245.251 407.459 246.939 403.656 249.905 403.303C252.87 402.95 255.977 406.184 256.847 410.522Z" fill="#FFD7C2"/>
<path d="M232.548 389.083C232.548 389.083 206.943 380.053 203.113 411.986C199.965 438.246 211.909 448.199 206.949 458.834C205.637 461.644 208.396 464.642 211.367 463.73C221.234 460.697 234.478 453.913 233.513 439.475C231.995 416.648 232.431 400.787 233.772 400.323C235.114 399.858 232.548 389.083 232.548 389.083Z" fill="#42373B"/>
<path d="M242.752 494.129C226.89 515.228 226.555 551.1 226.555 551.1L245.423 551.747C251.731 551.035 248.195 543.928 246.094 536.533L249.159 527.973L253.349 516.263L257.085 512.583L242.752 494.129Z" fill="#FEB02C"/>
<path d="M325.903 532.464H388.051V525.216H318.648C318.648 529.219 321.896 532.464 325.903 532.464Z" fill="#294C6A"/>
<path d="M389.792 530.548L415.527 468.563C416.222 466.893 415.427 464.971 413.756 464.277L413.115 464.013C411.444 463.319 409.52 464.113 408.826 465.782L383.091 527.767C382.397 529.437 383.191 531.359 384.862 532.053L385.503 532.317C387.174 533.017 389.098 532.223 389.792 530.548Z" fill="#294C6A"/>
<path fill-rule="evenodd" clip-rule="evenodd" d="M290.053 702.471C290.053 702.471 305.356 717.732 317.829 710.036L300.243 698.667L290.053 702.471Z" fill="#FFD7C2"/>
<path fill-rule="evenodd" clip-rule="evenodd" d="M347.893 702.471C347.893 702.471 363.196 717.732 375.669 710.036L358.083 698.667L347.893 702.471Z" fill="#FFBE9C"/>
</g>
<circle cx="1025.5" cy="156.5" r="45.5" fill="white"/>
<defs>
<clipPath id="clip0">
<rect width="955" height="503" fill="white" transform="translate(119 238)"/>
</clipPath>
</defs>
</svg>
