<svg width="16" height="12" viewBox="0 0 16 12" fill="none" xmlns="http://www.w3.org/2000/svg">
<path d="M1.5 0H5.62498C5.83122 0 5.99998 0.168762 5.99998 0.374999V0.624999C5.99998 0.831236 5.83122 1 5.62498 1H1.5C1.225 1 1 1.225 1 1.5V10.5C1 10.775 1.225 11 1.5 11H5.62498C5.83122 11 5.99998 11.1687 5.99998 11.375V11.625C5.99998 11.8312 5.83122 12 5.62498 12H1.5C0.671873 12 0 11.3281 0 10.5V1.5C0 0.671873 0.671873 0 1.5 0ZM10.2187 0.609374C10.3656 0.462493 10.6031 0.462493 10.75 0.609374L15.8937 5.73436C16.0406 5.88124 16.0406 6.11873 15.8937 6.26561L10.7531 11.3906C10.6062 11.5375 10.3687 11.5375 10.2218 11.3906L9.99997 11.1687C9.85309 11.0219 9.85309 10.7843 9.99997 10.6375L14.1219 6.53123H5.37498C5.16875 6.53123 4.99998 6.36247 4.99998 6.15624V5.84374C4.99998 5.6375 5.16875 5.46874 5.37498 5.46874H14.1219L9.99686 1.36248C9.84998 1.21563 9.84998 0.978117 9.99686 0.831236L10.2187 0.609374Z" fill="#FFD492"/>
</svg>
