<svg width="80" height="70" viewBox="0 0 80 70" fill="none" xmlns="http://www.w3.org/2000/svg">
<path fill-rule="evenodd" clip-rule="evenodd" d="M72.8913 33.3471L29.2685 66.2826C21.5138 72.1383 10.5074 70.5617 4.68504 62.7621L3.51736 61.198C-2.30447 53.3984 -0.736854 42.3289 7.01781 36.4732L50.6406 3.53766C58.3958 -2.31752 69.4022 -0.741444 75.224 7.05817L76.3917 8.62226C82.2141 16.4224 80.6465 27.4919 72.8913 33.3471Z" fill="#F6FAFF"/>
<rect x="13.332" y="11.3335" width="16" height="47.3333" rx="2.66667" fill="#5F90FF"/>
<rect x="32" y="11.3335" width="16" height="47.3333" rx="2.66667" fill="#5F90FF"/>
<path fill-rule="evenodd" clip-rule="evenodd" d="M40.0291 11.3619C38.9087 11.3619 39.6667 11.3619 38 11.3619C38 12.4832 38.9087 13.3916 40.0291 13.3916C41.1497 13.3916 42.0584 12.4832 42.0584 11.3619C40.6667 11.3331 41.1497 11.3619 40.0291 11.3619Z" fill="white"/>
<path fill-rule="evenodd" clip-rule="evenodd" d="M21.332 11.3335C20.2117 11.3335 21.332 11.3335 19.332 11.3622C19.332 12.4835 20.2408 13.3919 21.3611 13.3919C22.4817 13.3919 23.3905 12.4835 23.3905 11.3622C22.332 11.3335 22.4527 11.3335 21.332 11.3335Z" fill="white"/>
<rect x="50.668" y="11.3335" width="16" height="47.3333" rx="2.66667" fill="#5F90FF"/>
<rect x="16.668" y="19.3335" width="9.33333" height="1.33333" rx="0.666667" fill="#294C6A"/>
<rect x="35.332" y="19.3335" width="9.33333" height="1.33333" rx="0.666667" fill="#294C6A"/>
<path fill-rule="evenodd" clip-rule="evenodd" d="M58.668 11.3335C57.5476 11.3335 59.3346 11.3347 56.668 11.3623C56.668 12.4835 57.5767 13.3919 58.697 13.3919C59.8177 13.3919 60.7264 12.4835 60.7264 11.3623C59.0013 11.3335 59.7886 11.3335 58.668 11.3335Z" fill="white"/>
<rect x="54" y="19.3335" width="9.33333" height="1.33333" rx="0.666667" fill="#294C6A"/>
<rect x="16.668" y="45.3335" width="9.33333" height="1.33333" rx="0.666667" fill="#294C6A"/>
<rect x="35.332" y="45.3335" width="9.33333" height="1.33333" rx="0.666667" fill="#294C6A"/>
<rect x="54" y="45.3335" width="9.33333" height="1.33333" rx="0.666667" fill="#294C6A"/>
<rect x="16.668" y="23.3335" width="9.33333" height="1.33333" rx="0.666667" fill="#294C6A"/>
<rect x="35.332" y="23.3335" width="9.33333" height="1.33333" rx="0.666667" fill="#294C6A"/>
<rect x="54" y="23.3335" width="9.33333" height="1.33333" rx="0.666667" fill="#294C6A"/>
<rect x="16.668" y="49.3335" width="9.33333" height="1.33333" rx="0.666667" fill="#294C6A"/>
<rect x="35.332" y="49.3335" width="9.33333" height="1.33333" rx="0.666667" fill="#294C6A"/>
<path fill-rule="evenodd" clip-rule="evenodd" d="M70.0537 44.7987C69.6551 44.4183 69.6404 43.7868 70.0209 43.3882C70.4013 42.9896 71.0329 42.9749 71.4314 43.3553L78.3213 49.9317C78.7199 50.3122 78.7346 50.9437 78.3541 51.3423C77.9737 51.7408 77.3422 51.7555 76.9436 51.3751L70.0537 44.7987Z" fill="#FE8B00"/>
<rect x="54" y="49.3335" width="9.33333" height="1.33333" rx="0.666667" fill="#294C6A"/>
<path d="M76 41.6665L62 34.6665L68 49.6665L70.3333 43.6665L76 41.6665Z" fill="#FE8B00"/>
</svg>
