<svg width="80" height="70" viewBox="0 0 80 70" fill="none" xmlns="http://www.w3.org/2000/svg">
<path fill-rule="evenodd" clip-rule="evenodd" d="M72.8913 33.3471L29.2685 66.2826C21.5138 72.1383 10.5074 70.5617 4.68504 62.7621L3.51736 61.198C-2.30447 53.3984 -0.736854 42.3289 7.01781 36.4732L50.6406 3.53766C58.3958 -2.31752 69.4022 -0.741444 75.224 7.05817L76.3917 8.62226C82.2141 16.4224 80.6465 27.4919 72.8913 33.3471Z" fill="#F6FAFF"/>
<path fill-rule="evenodd" clip-rule="evenodd" d="M63.3359 22.2363V58.9884C63.3359 60.0313 62.3479 60.9113 61.1771 60.9113H25.4947C24.3239 60.9113 23.3359 60.0463 23.3359 58.9884V11.6299C23.3359 10.5713 24.3063 9.70703 25.4947 9.70703H49.2686" fill="#5F90FF"/>
<path fill-rule="evenodd" clip-rule="evenodd" d="M63.3372 22.2363L51.7036 22.14C50.3778 22.14 49.293 21.1545 49.293 19.9484V9.70703L63.3372 22.2363Z" fill="#294C6A"/>
<rect x="27.6211" y="26.1831" width="5.71428" height="4.28571" rx="1.12395" fill="#FE8B00"/>
<rect x="35.2383" y="27.6118" width="1.90476" height="1.42857" fill="#294C6A"/>
<rect x="35.2383" y="34.7544" width="1.90476" height="1.42857" fill="#294C6A"/>
<rect x="35.2383" y="41.897" width="1.90476" height="1.42857" fill="#294C6A"/>
<rect x="35.2383" y="48.7617" width="1.90476" height="1.42857" fill="#294C6A"/>
<rect x="39.5234" y="27.6118" width="17.1428" height="1.42857" fill="#294C6A"/>
<rect x="39.5234" y="34.7544" width="17.1428" height="1.42857" fill="#294C6A"/>
<rect x="39.5234" y="41.897" width="17.1428" height="1.42857" fill="#294C6A"/>
<rect x="39.5234" y="48.7617" width="17.1428" height="1.42857" fill="#294C6A"/>
<rect x="27.6211" y="33.3257" width="5.71428" height="4.28571" rx="1.12395" fill="#EFF7FF"/>
<rect x="27.6211" y="40.4688" width="5.71428" height="4.28571" rx="1.12395" fill="#EFF7FF"/>
<rect x="27.6211" y="47.3335" width="5.71428" height="4.28571" rx="1.12395" fill="#EFF7FF"/>
</svg>
