<svg width="80" height="70" viewBox="0 0 80 70" fill="none" xmlns="http://www.w3.org/2000/svg">
<path fill-rule="evenodd" clip-rule="evenodd" d="M72.8913 33.3471L29.2685 66.2826C21.5138 72.1383 10.5074 70.5617 4.68504 62.7621L3.51736 61.198C-2.30447 53.3984 -0.736854 42.3289 7.01781 36.4732L50.6406 3.53766C58.3958 -2.31752 69.4022 -0.741444 75.224 7.05817L76.3917 8.62226C82.2141 16.4224 80.6465 27.4919 72.8913 33.3471Z" fill="#F6FAFF"/>
<path d="M45.9974 28.5453C42.1763 32.0059 36.292 31.6971 32.854 27.8565C29.416 24.0159 29.7261 18.0977 33.5472 14.6372C37.3678 11.177 43.2518 11.4853 46.6898 15.3259C50.1278 19.1665 49.818 25.0851 45.9974 28.5453Z" fill="#FE8B00"/>
<path d="M65.1029 19.5276C62.9194 21.505 59.5569 21.3286 57.5923 19.134C55.6278 16.9393 55.805 13.5575 57.9884 11.58C60.1717 9.6028 63.5339 9.77901 65.4985 11.9736C67.4631 14.1682 67.2861 17.5503 65.1029 19.5276Z" fill="#294C6A"/>
<path d="M53.4362 6.43077C52.3445 7.41951 50.6632 7.33128 49.6809 6.23397C48.6986 5.13666 48.7873 3.44576 49.879 2.45702C50.9706 1.46839 52.6517 1.5565 53.634 2.65381C54.6163 3.75112 54.5278 5.44215 53.4362 6.43077Z" fill="#5F90FF"/>
<g clip-path="url(#clip0_62:6224)">
<path fill-rule="evenodd" clip-rule="evenodd" d="M68.4939 31.5074C67.3759 30.3894 65.5566 30.3894 64.4386 31.5074L52.5094 43.4366C50.885 45.0611 48.7254 45.9554 46.4283 45.9554H35.8885C35.361 45.9554 34.9329 45.5254 34.9329 44.9999C34.9329 44.4743 35.361 44.0443 35.8885 44.0443H46.3996C48.5075 44.0443 50.2218 42.3301 50.2218 40.2221C50.2218 38.1142 48.5075 36.3999 46.3996 36.3999H30.761C28.2995 36.3999 25.9163 37.1223 23.8695 38.4868L12.4258 46.116C12.0072 46.3931 11.8773 46.9492 12.1257 47.385L19.7702 60.7627C19.9059 61.0016 20.1371 61.1698 20.4047 61.2233C20.4696 61.2386 20.5346 61.2443 20.5996 61.2443C20.8041 61.2443 21.0067 61.1793 21.1729 61.0532L27.0439 56.6519C28.0567 55.8894 29.2627 55.4345 30.5316 55.3333L48.6795 53.9037C51.4621 53.6859 53.9982 52.3997 55.8214 50.286L68.4939 35.5609C69.0348 35.0182 69.3329 34.2977 69.3329 33.5332C69.3329 32.7688 69.0348 32.0483 68.4939 31.5074Z" fill="#5F90FF"/>
</g>
<defs>
<clipPath id="clip0_62:6224">
<rect width="57.3333" height="30.5778" fill="white" transform="translate(12 30.6665)"/>
</clipPath>
</defs>
</svg>
