<svg width="18" height="19" viewBox="0 0 18 19" fill="none" xmlns="http://www.w3.org/2000/svg">
<g clip-path="url(#clip0_70:867)">
<path d="M17.8769 17.1813L13.3418 12.6461C13.2609 12.5653 13.1554 12.5231 13.0429 12.5231H12.6808C13.8867 11.2188 14.625 9.47855 14.625 7.56254C14.625 3.52309 11.3519 0.250061 7.31248 0.250061C3.27303 0.250061 0 3.52309 0 7.56254C0 11.602 3.27303 14.875 7.31248 14.875C9.22849 14.875 10.9687 14.1367 12.273 12.9344V13.293C12.273 13.4055 12.3187 13.511 12.3961 13.5918L16.9312 18.127C17.0964 18.2922 17.3636 18.2922 17.5289 18.127L17.8769 17.7789C18.0422 17.6137 18.0422 17.3465 17.8769 17.1813ZM7.31248 13.75C3.89179 13.75 1.125 10.9832 1.125 7.56254C1.125 4.14186 3.89179 1.37506 7.31248 1.37506C10.7332 1.37506 13.5 4.14186 13.5 7.56254C13.5 10.9832 10.7332 13.75 7.31248 13.75Z" fill="#27303C"/>
</g>
<defs>
<clipPath id="clip0_70:867">
<rect width="18" height="19" fill="white"/>
</clipPath>
</defs>
</svg>
