<svg width="18" height="15" viewBox="0 0 18 15" fill="none" xmlns="http://www.w3.org/2000/svg">
<path fill-rule="evenodd" clip-rule="evenodd" d="M17.5814 2.42705H0.418605C0.187418 2.42705 0 2.23964 0 2.00845C0 1.77726 0.187418 1.58984 0.418605 1.58984H17.5814C17.8126 1.58984 18 1.77726 18 2.00845C18 2.23964 17.8126 2.42705 17.5814 2.42705Z" fill="#294C6A"/>
<path fill-rule="evenodd" clip-rule="evenodd" d="M17.5814 2.42705H0.418605C0.187418 2.42705 0 2.23964 0 2.00845C0 1.77726 0.187418 1.58984 0.418605 1.58984H17.5814C17.8126 1.58984 18 1.77726 18 2.00845C18 2.23964 17.8126 2.42705 17.5814 2.42705Z" fill="black" fill-opacity="0.2"/>
<path fill-rule="evenodd" clip-rule="evenodd" d="M17.5814 7.91851H0.418605C0.187418 7.91851 0 7.73109 0 7.4999C0 7.26872 0.187418 7.0813 0.418605 7.0813H17.5814C17.8126 7.0813 18 7.26872 18 7.4999C18 7.73109 17.8126 7.91851 17.5814 7.91851Z" fill="#294C6A"/>
<path fill-rule="evenodd" clip-rule="evenodd" d="M17.5814 7.91851H0.418605C0.187418 7.91851 0 7.73109 0 7.4999C0 7.26872 0.187418 7.0813 0.418605 7.0813H17.5814C17.8126 7.0813 18 7.26872 18 7.4999C18 7.73109 17.8126 7.91851 17.5814 7.91851Z" fill="black" fill-opacity="0.2"/>
<path fill-rule="evenodd" clip-rule="evenodd" d="M17.5814 13.41H0.418605C0.187418 13.41 0 13.2225 0 12.9914C0 12.7602 0.187418 12.5728 0.418605 12.5728H17.5814C17.8126 12.5728 18 12.7602 18 12.9914C18 13.2225 17.8126 13.41 17.5814 13.41Z" fill="#294C6A"/>
<path fill-rule="evenodd" clip-rule="evenodd" d="M17.5814 13.41H0.418605C0.187418 13.41 0 13.2225 0 12.9914C0 12.7602 0.187418 12.5728 0.418605 12.5728H17.5814C17.8126 12.5728 18 12.7602 18 12.9914C18 13.2225 17.8126 13.41 17.5814 13.41Z" fill="black" fill-opacity="0.2"/>
<mask id="mask0_111:903" style="mask-type:alpha" maskUnits="userSpaceOnUse" x="1" y="0" width="5" height="4">
<path fill-rule="evenodd" clip-rule="evenodd" d="M1.97656 0.15332H5.68665V3.8634H1.97656V0.15332Z" fill="white"/>
</mask>
<g mask="url(#mask0_111:903)">
<path fill-rule="evenodd" clip-rule="evenodd" d="M3.8316 0.15332C3.3361 0.15332 2.87026 0.34628 2.51989 0.696652C2.16952 1.04703 1.97656 1.51287 1.97656 2.00837C1.97656 2.50387 2.16952 2.96971 2.51989 3.32008C2.87026 3.67045 3.3361 3.8634 3.8316 3.8634C4.3271 3.8634 4.79294 3.67045 5.14331 3.32008C5.49369 2.96971 5.68665 2.50387 5.68665 2.00837C5.68665 1.51287 5.49369 1.04703 5.14331 0.696652C4.79294 0.34628 4.3271 0.15332 3.8316 0.15332Z" fill="#294C6A"/>
<path fill-rule="evenodd" clip-rule="evenodd" d="M3.8316 0.15332C3.3361 0.15332 2.87026 0.34628 2.51989 0.696652C2.16952 1.04703 1.97656 1.51287 1.97656 2.00837C1.97656 2.50387 2.16952 2.96971 2.51989 3.32008C2.87026 3.67045 3.3361 3.8634 3.8316 3.8634C4.3271 3.8634 4.79294 3.67045 5.14331 3.32008C5.49369 2.96971 5.68665 2.50387 5.68665 2.00837C5.68665 1.51287 5.49369 1.04703 5.14331 0.696652C4.79294 0.34628 4.3271 0.15332 3.8316 0.15332Z" fill="black" fill-opacity="0.2"/>
</g>
<path fill-rule="evenodd" clip-rule="evenodd" d="M15.0183 6.18834C14.6679 5.83797 14.2021 5.64502 13.7066 5.64502C13.2111 5.64502 12.7453 5.83797 12.3949 6.18834C12.0445 6.53872 11.8516 7.00457 11.8516 7.50007C11.8516 7.99556 12.0445 8.46141 12.3949 8.81177C12.7453 9.16214 13.2111 9.3551 13.7066 9.3551C14.2021 9.3551 14.6679 9.16214 15.0183 8.81177C15.3687 8.46141 15.5616 7.99556 15.5616 7.50007C15.5616 7.00457 15.3687 6.53872 15.0183 6.18834Z" fill="#294C6A"/>
<path fill-rule="evenodd" clip-rule="evenodd" d="M15.0183 6.18834C14.6679 5.83797 14.2021 5.64502 13.7066 5.64502C13.2111 5.64502 12.7453 5.83797 12.3949 6.18834C12.0445 6.53872 11.8516 7.00457 11.8516 7.50007C11.8516 7.99556 12.0445 8.46141 12.3949 8.81177C12.7453 9.16214 13.2111 9.3551 13.7066 9.3551C14.2021 9.3551 14.6679 9.16214 15.0183 8.81177C15.3687 8.46141 15.5616 7.99556 15.5616 7.50007C15.5616 7.00457 15.3687 6.53872 15.0183 6.18834Z" fill="black" fill-opacity="0.2"/>
<path fill-rule="evenodd" clip-rule="evenodd" d="M8.1402 11.1365C7.6447 11.1365 7.17886 11.3294 6.82849 11.6798C6.47812 12.0302 6.28516 12.496 6.28516 12.9915C6.28516 13.487 6.47812 13.9529 6.82849 14.3032C7.17886 14.6536 7.6447 14.8466 8.1402 14.8466C8.6357 14.8466 9.10154 14.6536 9.45192 14.3032C9.80228 13.9529 9.99524 13.487 9.99524 12.9915C9.99524 12.496 9.80228 12.0302 9.45192 11.6798C9.10154 11.3294 8.6357 11.1365 8.1402 11.1365Z" fill="#294C6A"/>
<path fill-rule="evenodd" clip-rule="evenodd" d="M8.1402 11.1365C7.6447 11.1365 7.17886 11.3294 6.82849 11.6798C6.47812 12.0302 6.28516 12.496 6.28516 12.9915C6.28516 13.487 6.47812 13.9529 6.82849 14.3032C7.17886 14.6536 7.6447 14.8466 8.1402 14.8466C8.6357 14.8466 9.10154 14.6536 9.45192 14.3032C9.80228 13.9529 9.99524 13.487 9.99524 12.9915C9.99524 12.496 9.80228 12.0302 9.45192 11.6798C9.10154 11.3294 8.6357 11.1365 8.1402 11.1365Z" fill="black" fill-opacity="0.2"/>
</svg>
