<svg width="21" height="17" viewBox="0 0 21 17" fill="none" xmlns="http://www.w3.org/2000/svg">
<path d="M1.31255 16.125C1.00177 16.125 0.750048 15.8732 0.750048 15.5625V0.937499C0.750048 0.626724 1.00177 0.375 1.31255 0.375H2.43754C2.74832 0.375 3.00004 0.626724 3.00004 0.937499V15.5625C3.00004 15.8732 2.74832 16.125 2.43754 16.125H1.31255ZM12 16.125C10.4359 16.125 9.12916 15.0502 8.74808 13.6043L4.12504 15V1.5L18.9409 5.97256C19.1402 5.65828 19.4749 5.43749 19.875 5.43749C20.4962 5.43749 21 5.94128 21 6.56249V9.93748C21 10.5587 20.4962 11.0625 19.875 11.0625C19.4749 11.0625 19.1402 10.8417 18.9409 10.5274L15.1796 11.6629C15.2973 12.0061 15.375 12.3675 15.375 12.75C15.375 14.6112 13.8612 16.125 12 16.125ZM12 14.4375C12.9306 14.4375 13.6875 13.6805 13.6875 12.75C13.6875 12.5373 13.6439 12.3355 13.5719 12.1481L10.3561 13.1188C10.5252 13.8722 11.1967 14.4375 12 14.4375Z" fill="#FF9394"/>
</svg>
