<svg width="80" height="70" viewBox="0 0 80 70" fill="none" xmlns="http://www.w3.org/2000/svg">
<path fill-rule="evenodd" clip-rule="evenodd" d="M72.8913 33.3471L29.2685 66.2826C21.5138 72.1383 10.5074 70.5617 4.68504 62.7621L3.51736 61.198C-2.30447 53.3984 -0.736854 42.3289 7.01781 36.4732L50.6406 3.53766C58.3958 -2.31752 69.4022 -0.741444 75.224 7.05817L76.3917 8.62226C82.2141 16.4224 80.6465 27.4919 72.8913 33.3471Z" fill="#F6FAFF"/>
<path d="M57.107 51.9194C46.7604 61.29 30.8221 60.4487 21.507 50.0428C12.1919 39.6369 13.0272 23.6066 23.3738 14.2361C33.7192 4.86659 49.6565 5.7067 58.9715 16.1126C68.2866 26.5184 67.4524 42.5499 57.107 51.9194Z" fill="#5F90FF"/>
<path d="M57.107 51.9194C46.7604 61.29 30.8221 60.4487 21.507 50.0428C12.1919 39.6369 13.0272 23.6066 23.3738 14.2361C33.7192 4.86659 49.6565 5.7067 58.9715 16.1126C68.2866 26.5184 67.4524 42.5499 57.107 51.9194V51.9194Z" stroke="#294C6A" stroke-width="1.33333"/>
<path d="M50.6491 17.3935L43.0962 16.08C42.8201 16.032 42.5435 16.1617 42.4039 16.4047L32.5737 33.5164C32.3184 33.9608 32.6393 34.5152 33.1518 34.5152H39.4848L33.8275 45.4862C33.4826 46.1551 34.3372 46.7938 34.881 46.2734L50.4969 31.3302C50.9312 30.9146 50.6371 30.1818 50.036 30.1818H42.6364L51.0762 18.4394C51.3633 18.04 51.1337 17.4778 50.6491 17.3935Z" fill="#F6FAFF"/>
<path d="M48.6491 18.06L41.0962 16.7465C40.8201 16.6985 40.5435 16.8282 40.4039 17.0712L30.5737 34.1829C30.3184 34.6273 30.6393 35.1817 31.1518 35.1817H37.4848L31.8275 46.1527C31.4826 46.8217 32.3372 47.4603 32.881 46.9399L48.4969 31.9967C48.9312 31.5811 48.6371 30.8483 48.036 30.8483H40.6364L49.0762 19.1059C49.3633 18.7065 49.1337 18.1443 48.6491 18.06Z" fill="#FE8B00"/>
<path d="M23.332 14.6665L57.9987 50.9998" stroke="#294C6A" stroke-width="1.33333" stroke-linecap="round"/>
</svg>
