<svg width="13" height="13" viewBox="0 0 13 13" fill="none" xmlns="http://www.w3.org/2000/svg">
<path d="M7.00408 12.5813L7.19994 12.3855C7.32973 12.2557 7.32973 12.0452 7.19994 11.9154L2.25587 6.97134H12.6675C12.851 6.97134 12.9999 6.82252 12.9999 6.63896V6.36197C12.9999 6.17841 12.851 6.02958 12.6675 6.02958H2.25587L7.19994 1.08551C7.32973 0.955727 7.32973 0.745254 7.19994 0.615443L7.00408 0.419604C6.87427 0.28982 6.66382 0.28982 6.53404 0.419604L0.688158 6.26543C0.558374 6.39524 0.558374 6.60569 0.688158 6.73552L6.53404 12.5813C6.66382 12.7111 6.87427 12.7111 7.00408 12.5813Z" fill="#3469E1"/>
</svg>
