<svg width="18" height="20" viewBox="0 0 18 20" fill="none" xmlns="http://www.w3.org/2000/svg">
<path d="M12.25 11.25C15.1484 11.25 17.5 13.6015 17.5 16.5V18.125C17.5 19.1601 16.6601 20 15.625 20H1.87499C0.839838 20 0 19.1601 0 18.125V16.5C0 13.6015 2.35157 11.25 5.25001 11.25C6.375 11.25 6.91015 11.875 8.74998 11.875C10.5898 11.875 11.1289 11.25 12.25 11.25ZM16.25 18.125V16.5C16.25 14.2929 14.457 12.5 12.25 12.5C11.4844 12.5 10.7187 13.125 8.74998 13.125C6.77733 13.125 6.01561 12.5 5.24999 12.5C3.04297 12.5 1.25 14.2929 1.25 16.5V18.125C1.25 18.4687 1.53125 18.75 1.87499 18.75H15.625C15.9687 18.75 16.25 18.4687 16.25 18.125ZM8.74998 9.99998C5.98826 9.99998 3.74999 7.76171 3.74999 4.99999C3.74999 2.23827 5.98826 0 8.74998 0C11.5117 0 13.75 2.23827 13.75 4.99999C13.75 7.76171 11.5117 9.99998 8.74998 9.99998ZM8.74998 1.25C6.68356 1.25 4.99999 2.93357 4.99999 4.99999C4.99999 7.0664 6.68356 8.74998 8.74998 8.74998C10.8164 8.74998 12.5 7.0664 12.5 4.99999C12.5 2.93357 10.8164 1.25 8.74998 1.25Z" fill="white"/>
</svg>
